<?xml version="1.0" encoding="utf-8"?>
<!-- Generator: Adobe Illustrator 16.0.0, SVG Export Plug-In . SVG Version: 6.00 Build 0)  -->
<!DOCTYPE svg PUBLIC "-//W3C//DTD SVG 1.1//EN" "http://www.w3.org/Graphics/SVG/1.1/DTD/svg11.dtd">
<svg version="1.1" id="图层_1" xmlns="http://www.w3.org/2000/svg" xmlns:xlink="http://www.w3.org/1999/xlink" x="0px" y="0px"
	 width="38.25px" height="519.172px" viewBox="6.25 -48.828 38.25 519.172" enable-background="new 6.25 -48.828 38.25 519.172"
	 xml:space="preserve">
<circle fill="#FFB700" cx="25.708" cy="9.906" r="17.5"/>
<circle fill="#FFB700" cx="25.708" cy="49.906" r="17.5"/>
<circle fill="#FFB700" cx="25.708" cy="89.906" r="17.5"/>
<circle fill="#FFB700" cx="25.708" cy="129.906" r="17.5"/>
<circle fill="#FFB700" cx="25.708" cy="169.906" r="17.5"/>
<circle fill="#FFB700" cx="25.708" cy="209.906" r="17.499"/>
<circle fill="#FFB700" cx="25.708" cy="249.906" r="17.499"/>
<circle fill="#FFB700" cx="25.771" cy="289.904" r="17.499"/>
<circle fill="#FFB700" cx="25.708" cy="329.904" r="17.499"/>
<circle fill="#FFB700" cx="25.708" cy="369.904" r="17.499"/>
<circle fill="#FFB700" cx="25.708" cy="409.905" r="17.499"/>
<g>
	<path fill="#FFFFFF" d="M33.842,51.976l-8.15-7.887l-7.706,7.817c0,0,0,2.412,0,5.317c0,2.903,5.137,2.771,5.137,2.771l0.052-5.121
		h5.63v5.121c5.613,0.084,5.038-2.63,5.038-2.63L33.842,51.976L33.842,51.976z"/>
	<path fill="#FFFFFF" d="M36.555,48.825c-1.373-1.519-9.056-8.643-9.056-8.643s-1.935-1.519-3.563,0
		c-1.703,1.592-8.136,7.825-8.136,7.825s-1.948,1.69,0.239,3.49l9.626-9.588l10.022,9.62C35.688,51.53,37.927,50.346,36.555,48.825z
		"/>
</g>
<g>
	<g>
		<g>
			<g>
				<path fill="#FFFFFF" d="M21.7,82.175c0.286,0.301,0.278,0.8-0.017,1.108l-6.972,7.283c-0.296,0.312-0.775,0.317-1.063,0.02
					c-0.288-0.302-0.281-0.802,0.016-1.109l6.972-7.284C20.934,81.88,21.411,81.873,21.7,82.175z"/>
			</g>
		</g>
		<g>
			<g>
				<path fill="#FFFFFF" d="M20.682,82.175c-0.289,0.301-0.281,0.8,0.019,1.108l6.823,7.135c0.299,0.31,0.773,0.313,1.063,0.017
					c0.289-0.302,0.281-0.8-0.019-1.109l-6.825-7.135C21.447,81.88,20.969,81.873,20.682,82.175z"/>
			</g>
		</g>
		<g>
			<path fill="#FFFFFF" d="M26.227,90.428l-4.854-5.087c-0.135-0.14-0.35-0.14-0.479,0l-4.855,5.087
				c-0.131,0.139-0.24,0.412-0.24,0.606v5.687c0,0.195,0.154,0.355,0.339,0.355h3.326v-4.346c0-0.349,0.274-0.635,0.608-0.635h2.121
				c0.336,0,0.607,0.286,0.607,0.635v4.346h3.326c0.188,0,0.342-0.161,0.342-0.355v-5.687
				C26.465,90.841,26.357,90.566,26.227,90.428z"/>
		</g>
	</g>
	<path fill="#FFFFFF" d="M38.432,89.88c0,0.426-0.35,0.771-0.771,0.771h-9.425c-0.422,0-0.771-0.347-0.771-0.771
		s0.349-0.773,0.771-0.773h9.425C38.083,89.106,38.432,89.456,38.432,89.88z"/>
	<polygon fill="#FFFFFF" points="30.852,81.952 21.204,81.952 28.782,89.88 38.432,89.88 	"/>
	<path fill="#FFFFFF" d="M37.202,91.576h-9.203c-0.211,0-0.386,0.181-0.386,0.399v4.696c0,0.222,0.175,0.403,0.386,0.403H37.2
		c0.215,0,0.387-0.184,0.387-0.403v-4.696C37.586,91.756,37.415,91.576,37.202,91.576z M31.225,95.534h-1.85v-2.528h1.85V95.534z
		 M33.98,95.534h-1.847v-2.528h1.847V95.534z"/>
</g>
<path fill="#FFFFFF" d="M16.667,120.332v19.974H36.25v-19.974H16.667L16.667,120.332z M25.146,132.873h-4.367v-1.668h4.365
	L25.146,132.873L25.146,132.873z M25.146,129.43h-4.367v-1.667h4.365L25.146,129.43L25.146,129.43z M32.135,132.873h-4.363v-1.668
	h4.363V132.873z M32.135,129.43h-4.363v-1.667h4.363V129.43z"/>
<path fill="#FFFFFF" d="M17.418,199.411v20.196h18.109v-20.196H17.418z M25.262,216.831h-4.037v-1.688h4.037V216.831z
	 M25.262,213.347h-4.037v-1.686h4.037V213.347z M31.721,216.831h-4.033v-1.688h4.033V216.831z M31.721,213.347h-4.033v-1.686h4.033
	V213.347z"/>
<path fill="#FFFFFF" d="M17.25,239.873v18.716h18.667v-18.716H17.25L17.25,239.873z M25.333,242.463H21.17V240.9h4.162
	L25.333,242.463L25.333,242.463z M31.995,242.463h-4.162V240.9h4.162V242.463z"/>
<path fill="#FFFFFF" d="M16.888,280.732v19.524H35.73v-19.524H16.888z M25.045,299.175h-4.199v-1.632h4.199V299.175z
	 M31.771,299.175H27.57v-1.632h4.201V299.175z"/>
<path fill="#FFFFFF" d="M17.389,159.163v20.506h18.138v-20.506H17.389z M25.243,167.26H21.2v-1.715h4.043V167.26z M25.243,163.725
	H21.2v-1.712h4.043V163.725z M31.713,167.26H27.67v-1.715h4.043V167.26L31.713,167.26z M31.713,163.725H27.67v-1.712h4.043V163.725
	L31.713,163.725z"/>
<g>
	<path fill="#FFFFFF" d="M18.331,327.36c0.333-1.377,0.575-2.796,2.338-2.641c0.485,0.042,0.922,0.292,0.995,1.019
		c0.023,0.246,0.238,0.432,0.396,0.024c0.332-0.847,1.229-0.787,1.562-0.02c0.382,0.894,0.032,2.105-0.422,3.35
		c-1.521,4.143-4.255,6.393-8.289,7.089c-1.774,0.303-2.329-0.049-1.296-0.778C16.763,333.182,17.415,331.153,18.331,327.36z"/>
	<path fill="#FFFFFF" d="M20.165,324.182c0.987-0.222,1.576,0.188,1.706,1.156c0.016,0.104,0.036,0.177,0.115,0.03
		c0.355-0.638,0.931-0.613,1.4-0.063c0.105-0.363-0.113-0.705-0.479-0.976c-0.248-0.185-0.552-0.259-0.664-0.583
		c-0.13-0.363,0.112-0.771,0.53-0.803c0.357,0,0.131-0.729,0.053-0.729c-0.938,0.063-1.123,1.341-0.84,2.057
		c-0.117-0.134-0.215-0.283-0.262-0.459c-0.145-0.035-0.285-0.06-0.423-0.07C20.738,323.687,20.258,323.808,20.165,324.182z"/>
</g>
<g>
	<path fill="#FFFFFF" d="M33.443,327.4c0.334-1.377,0.576-2.794,2.341-2.644c0.792,0.07,0.526,0.163,0.073,0.349
		c-0.594,0.241-1.189,1.421-1.479,2.624c-0.599,2.466-1.114,4.276-2.246,5.874c-1.255,1.771-0.417,1.358,0.699,0.808
		c2.614-1.31,4.606-4.104,5.321-6.826c0.123-0.466,0.188-0.896,0.195-1.379c0.008-0.479,0.002-0.807,0.297-0.278
		c0.479,0.845,0.125,1.966-0.334,3.21c-1.521,4.14-4.254,6.393-8.285,7.086c-1.774,0.306-2.334-0.046-1.299-0.776
		C31.876,333.22,32.527,331.195,33.443,327.4z"/>
	<path fill="#FFFFFF" d="M35.277,324.222c0.988-0.222,1.578,0.184,1.705,1.155c0.02,0.107,0.035,0.178,0.119,0.033
		c0.354-0.639,0.928-0.614,1.396-0.063c0.106-0.365-0.106-0.705-0.479-0.977c-0.248-0.184-0.55-0.257-0.664-0.584
		c-0.127-0.362,0.111-0.771,0.53-0.8c0.363,0,0.134-0.731,0.058-0.731c-0.939,0.063-1.127,1.343-0.84,2.06
		c-0.119-0.133-0.215-0.282-0.266-0.46c-0.146-0.034-0.286-0.06-0.422-0.069C35.852,323.727,35.375,323.848,35.277,324.222z"/>
</g>
<g>
	<path fill="#FFFFFF" d="M32.854,408.391c0.326-1.318,0.563-2.679,2.285-2.532c0.773,0.065,0.521,0.156,0.072,0.333
		c-0.578,0.229-1.162,1.362-1.443,2.52c-0.582,2.366-1.09,4.104-2.191,5.637c-1.229,1.7-0.408,1.305,0.68,0.771
		c2.563-1.257,4.508-3.938,5.205-6.55c0.119-0.446,0.188-0.859,0.191-1.324c0.005-0.453,0.002-0.771,0.289-0.268
		c0.467,0.813,0.121,1.887-0.324,3.078c-1.484,3.974-4.158,6.134-8.104,6.798c-1.734,0.291-2.277-0.045-1.271-0.743
		C31.318,413.977,31.958,412.029,32.854,408.391z"/>
	<path fill="#FFFFFF" d="M34.648,405.342c0.965-0.211,1.541,0.181,1.666,1.109c0.017,0.104,0.035,0.17,0.11,0.029
		c0.353-0.609,0.91-0.588,1.369-0.06c0.104-0.353-0.106-0.677-0.467-0.938c-0.244-0.177-0.539-0.247-0.652-0.563
		c-0.123-0.346,0.107-0.736,0.521-0.764c0.354,0,0.13-0.704,0.054-0.704c-0.916,0.063-1.101,1.288-0.817,1.977
		c-0.115-0.129-0.211-0.271-0.259-0.442c-0.144-0.029-0.276-0.056-0.414-0.066C35.208,404.87,34.738,404.982,34.648,405.342z"/>
</g>
<g>
	<path fill="#FFFFFF" d="M26.005,327.4c0.331-1.377,0.575-2.794,2.341-2.644c0.791,0.07,0.524,0.163,0.071,0.349
		c-0.592,0.241-1.188,1.421-1.478,2.624c-0.6,2.466-1.114,4.276-2.246,5.874c-1.256,1.771-0.418,1.358,0.697,0.808
		c2.615-1.31,4.607-4.104,5.321-6.826c0.122-0.466,0.188-0.896,0.195-1.379c0.007-0.479,0.005-0.807,0.298-0.278
		c0.479,0.845,0.125,1.966-0.333,3.21c-1.521,4.14-4.256,6.393-8.288,7.086c-1.773,0.306-2.331-0.046-1.298-0.776
		C24.436,333.22,25.087,331.195,26.005,327.4z"/>
	<path fill="#FFFFFF" d="M27.837,324.222c0.989-0.222,1.576,0.184,1.704,1.155c0.018,0.107,0.038,0.178,0.115,0.033
		c0.359-0.639,0.931-0.614,1.398-0.063c0.109-0.365-0.107-0.705-0.478-0.977c-0.253-0.184-0.556-0.257-0.667-0.584
		c-0.126-0.362,0.111-0.771,0.531-0.8c0.356,0,0.136-0.731,0.055-0.731c-0.938,0.063-1.122,1.343-0.846,2.06
		c-0.112-0.133-0.211-0.282-0.26-0.46c-0.146-0.034-0.285-0.06-0.42-0.069C28.413,323.727,27.932,323.848,27.837,324.222z"/>
</g>
<g>
	<path fill="#FFFFFF" d="M17.595,367.737c0.323-1.202,0.557-2.443,2.264-2.31c0.471,0.034,0.892,0.255,0.963,0.891
		c0.023,0.217,0.229,0.376,0.384,0.021c0.321-0.739,1.19-0.689,1.511-0.019c0.371,0.781,0.034,1.846-0.408,2.934
		c-1.47,3.624-4.117,5.597-8.021,6.202c-1.717,0.268-2.255-0.042-1.255-0.681C16.076,372.832,16.708,371.058,17.595,367.737z"/>
	<path fill="#FFFFFF" d="M19.372,364.955c0.956-0.193,1.524,0.161,1.649,1.015c0.015,0.094,0.033,0.153,0.11,0.027
		c0.347-0.56,0.897-0.537,1.354-0.058c0.104-0.318-0.105-0.615-0.461-0.854c-0.239-0.158-0.532-0.225-0.646-0.51
		c-0.121-0.316,0.111-0.676,0.518-0.699c0.35,0,0.127-0.643,0.049-0.643c-0.905,0.059-1.086,1.176-0.812,1.805
		c-0.114-0.117-0.207-0.25-0.255-0.402c-0.139-0.031-0.273-0.051-0.406-0.063C19.925,364.523,19.461,364.627,19.372,364.955z"/>
</g>
<g>
	<path fill="#FFFFFF" d="M25.035,367.737c0.32-1.202,0.557-2.443,2.263-2.31c0.472,0.034,0.894,0.255,0.964,0.891
		c0.022,0.217,0.231,0.376,0.385,0.021c0.321-0.739,1.19-0.689,1.511-0.019c0.37,0.781,0.032,1.846-0.406,2.934
		c-1.469,3.624-4.118,5.597-8.021,6.202c-1.719,0.268-2.254-0.042-1.254-0.681C23.516,372.832,24.145,371.058,25.035,367.737z"/>
	<path fill="#FFFFFF" d="M26.809,364.955c0.957-0.193,1.525,0.161,1.649,1.015c0.017,0.094,0.036,0.153,0.11,0.027
		c0.346-0.56,0.896-0.537,1.354-0.058c0.104-0.318-0.104-0.615-0.467-0.854c-0.238-0.158-0.532-0.225-0.644-0.51
		c-0.125-0.316,0.108-0.676,0.516-0.699c0.354,0,0.128-0.643,0.052-0.643c-0.903,0.059-1.087,1.176-0.813,1.805
		c-0.114-0.117-0.209-0.25-0.256-0.402c-0.137-0.031-0.272-0.051-0.403-0.063C27.366,364.523,26.898,364.627,26.809,364.955z"/>
</g>
<g>
	<path fill="#FFFFFF" d="M32.148,367.695c0.322-1.203,0.562-2.444,2.264-2.313c0.475,0.039,0.893,0.259,0.964,0.894
		c0.022,0.217,0.231,0.378,0.384,0.021c0.322-0.739,1.19-0.688,1.512-0.019c0.371,0.781,0.033,1.845-0.408,2.932
		c-1.471,3.628-4.115,5.597-8.021,6.205c-1.715,0.264-2.254-0.041-1.255-0.683C30.627,372.788,31.262,371.014,32.148,367.695z"/>
	<path fill="#FFFFFF" d="M33.922,364.914c0.957-0.193,1.527,0.161,1.65,1.011c0.017,0.097,0.035,0.157,0.113,0.027
		c0.346-0.559,0.897-0.536,1.354-0.054c0.104-0.318-0.105-0.619-0.462-0.854c-0.242-0.159-0.533-0.226-0.646-0.51
		c-0.125-0.316,0.105-0.679,0.516-0.699c0.35,0,0.127-0.644,0.05-0.644c-0.906,0.059-1.087,1.177-0.81,1.804
		c-0.117-0.116-0.209-0.248-0.261-0.401c-0.14-0.03-0.271-0.052-0.405-0.063C34.477,364.48,34.014,364.586,33.922,364.914z"/>
</g>
<g>
	<path fill="#FFFFFF" d="M18.063,408.394c0.326-1.316,0.564-2.681,2.287-2.531c0.477,0.039,0.9,0.281,0.974,0.978
		c0.024,0.238,0.233,0.415,0.39,0.021c0.324-0.809,1.201-0.755,1.521-0.018c0.377,0.857,0.035,2.021-0.408,3.212
		c-1.486,3.977-4.16,6.134-8.104,6.798c-1.734,0.291-2.278-0.045-1.268-0.741C16.529,413.978,17.167,412.033,18.063,408.394z"/>
	<path fill="#FFFFFF" d="M19.857,405.344c0.965-0.212,1.539,0.179,1.666,1.11c0.016,0.104,0.035,0.17,0.115,0.03
		c0.35-0.611,0.908-0.591,1.365-0.063c0.107-0.352-0.105-0.676-0.467-0.938c-0.244-0.177-0.539-0.247-0.65-0.561
		c-0.125-0.348,0.109-0.737,0.521-0.769c0.352,0,0.129-0.7,0.053-0.7c-0.916,0.061-1.102,1.286-0.818,1.977
		c-0.117-0.131-0.211-0.271-0.26-0.444c-0.139-0.03-0.275-0.056-0.408-0.066C20.418,404.871,19.948,404.985,19.857,405.344z"/>
</g>
<g>
	<path fill="#FFFFFF" d="M25.579,408.394c0.323-1.316,0.563-2.681,2.287-2.531c0.475,0.039,0.899,0.281,0.975,0.978
		c0.021,0.238,0.229,0.415,0.386,0.021c0.326-0.809,1.203-0.755,1.524-0.018c0.377,0.857,0.035,2.021-0.408,3.212
		c-1.487,3.977-4.161,6.134-8.104,6.798c-1.734,0.291-2.277-0.045-1.27-0.741C24.043,413.978,24.682,412.033,25.579,408.394z"/>
	<path fill="#FFFFFF" d="M27.372,405.344c0.965-0.212,1.539,0.179,1.664,1.11c0.017,0.104,0.034,0.17,0.116,0.03
		c0.349-0.611,0.906-0.591,1.367-0.063c0.104-0.352-0.106-0.676-0.47-0.938c-0.241-0.177-0.538-0.247-0.651-0.561
		c-0.125-0.348,0.108-0.737,0.521-0.769c0.354,0,0.127-0.7,0.052-0.7c-0.916,0.061-1.103,1.286-0.818,1.977
		c-0.116-0.131-0.209-0.271-0.26-0.444c-0.142-0.03-0.274-0.056-0.412-0.066C27.932,404.871,27.463,404.985,27.372,405.344z"/>
</g>
<g>
	<g>
		<path fill="#FFFFFF" d="M36.954,5.588l-5.769-6.25c-0.125-0.136-0.293-0.202-0.457-0.2c-0.164-0.002-0.332,0.064-0.457,0.2
			l-5.769,6.25c-0.056,0.06-0.094,0.126-0.125,0.196h1.677l4.674-5.063l5.356,5.806c0.244,0.269,0.642,0.271,0.879,0.017
			C37.204,6.281,37.195,5.854,36.954,5.588z"/>
		<path fill="#FFFFFF" d="M30.928,2.238c-0.109-0.115-0.287-0.115-0.398,0l-4.016,4.365c-0.106,0.118-0.199,0.354-0.199,0.521
			v11.707c0,0.167,0.127,0.305,0.283,0.305h8.262c0.156,0,0.283-0.138,0.283-0.305V7.125c0-0.167-0.09-0.401-0.201-0.521
			L30.928,2.238z M31.057,5.928h0.961V6.97h-0.961V5.928z M31.057,7.577h0.961v1.04h-0.961V7.577z M29.538,5.928h0.961V6.97h-0.961
			V5.928z M29.538,7.577h0.961v1.04h-0.961V7.577z M32.031,17.701h-2.592v-3.454c0-0.726,0.547-1.314,1.211-1.314h0.17
			c0.666,0,1.211,0.591,1.211,1.314V17.701L32.031,17.701z"/>
	</g>
	<path fill="#FFFFFF" d="M25.708,4.427H14.219c-0.407,0-0.738,0.309-0.738,0.688s0.332,0.688,0.738,0.688h11.488L25.708,4.427
		L25.708,4.427z"/>
	<path fill="#FFFFFF" d="M14.219,6.746c-0.239,0-0.434,0.212-0.434,0.47v11.469c0,0.259,0.196,0.47,0.434,0.47h12.095V6.746H14.219z
		 M24.249,10.463c0.469,0.095,0.823,0.537,0.828,1.066h-0.828V10.463z M20.592,10.463c0.467,0.095,0.823,0.537,0.829,1.066h-0.829
		V10.463z M16.936,10.463c0.466,0.095,0.823,0.537,0.829,1.066h-0.829V10.463z M16.424,14.438h-0.83v-2.351h0.83V14.438z
		 M16.424,11.531h-0.828c0.005-0.53,0.36-0.974,0.828-1.067V11.531z M17.765,14.438h-0.83v-2.351h0.83V14.438z M20.08,14.438h-0.829
		v-2.351h0.829V14.438z M20.08,11.531h-0.829c0.005-0.53,0.36-0.974,0.829-1.067V11.531z M21.42,14.438h-0.829v-2.351h0.829V14.438z
		 M23.736,14.438h-0.827v-2.351h0.827V14.438z M23.736,11.531h-0.827c0.004-0.53,0.36-0.974,0.827-1.067V11.531z M25.077,14.438
		h-0.828v-2.351h0.828V14.438z"/>
	<polygon fill="#FFFFFF" points="15.974,2.15 27.613,2.15 25.301,4.667 13.661,4.667 	"/>
</g>
<circle fill="#FFB700" cx="25.381" cy="-30.159" r="17.5"/>
<g>
	<path fill="#FFFFFF" d="M17.292-37.429c-0.219-0.218-0.224-0.567-0.013-0.778c0.103-0.103,0.237-0.15,0.373-0.153
		c-0.145-0.001-0.293,0.052-0.406,0.164l-5.108,5.109c-0.218,0.218-0.223,0.566-0.011,0.777c0.211,0.21,0.561,0.205,0.778-0.011
		l4.747-4.748L17.292-37.429z"/>
	<path fill="#FFFFFF" d="M17.292-37.429l0.36,0.361L22.4-32.32c0.216,0.216,0.566,0.221,0.776,0.011
		c0.212-0.211,0.206-0.561-0.011-0.777l-5.107-5.109c-0.114-0.112-0.261-0.165-0.407-0.164c-0.136,0.002-0.271,0.051-0.373,0.153
		C17.068-37.997,17.073-37.647,17.292-37.429z"/>
	<path fill="#FFFFFF" d="M21.385-32.205l-3.557-3.569c-0.098-0.098-0.255-0.098-0.352,0l-3.559,3.569
		c-0.097,0.097-0.176,0.288-0.176,0.425v9.572c0,0.137,0.113,0.25,0.25,0.25h7.319c0.139,0,0.25-0.112,0.25-0.25v-9.572
		C21.563-31.917,21.482-32.109,21.385-32.205z M17.943-32.757h0.851v0.852h-0.851V-32.757z M17.943-31.409h0.851v0.851h-0.851
		V-31.409z M16.597-32.757h0.851v0.852h-0.851V-32.757z M16.597-31.409h0.851v0.851h-0.851V-31.409z M18.797-22.852h-2.292v-2.827
		c0-0.59,0.482-1.071,1.072-1.071h0.149c0.59,0,1.071,0.481,1.071,1.071V-22.852z"/>
	<path fill="#FFFFFF" d="M32.736-38.208c0.103-0.103,0.234-0.15,0.371-0.153c-0.146-0.001-0.291,0.052-0.404,0.164l-5.109,5.109
		c-0.219,0.218-0.223,0.566-0.011,0.777c0.21,0.21,0.562,0.205,0.776-0.011l4.748-4.748l-0.359-0.361
		C32.531-37.647,32.525-37.997,32.736-38.208z"/>
	<path fill="#FFFFFF" d="M38.623-33.088l-5.105-5.109c-0.115-0.112-0.263-0.165-0.408-0.164c-0.137,0.002-0.271,0.051-0.371,0.153
		c-0.211,0.211-0.206,0.561,0.011,0.778l0.36,0.361l4.748,4.748c0.218,0.216,0.566,0.221,0.779,0.011
		C38.848-32.52,38.839-32.87,38.623-33.088z"/>
	<path fill="#FFFFFF" d="M36.843-32.205l-3.558-3.569c-0.098-0.098-0.258-0.098-0.352,0l-3.56,3.569
		c-0.099,0.097-0.177,0.288-0.177,0.425v9.572c0,0.137,0.113,0.25,0.25,0.25h7.322c0.137,0,0.25-0.112,0.25-0.25v-9.572
		C37.021-31.917,36.939-32.109,36.843-32.205z M33.402-32.757h0.851v0.852h-0.851V-32.757z M33.4-31.409h0.853v0.851H33.4V-31.409z
		 M32.055-32.757h0.852v0.852h-0.852V-32.757z M32.055-31.409h0.852v0.851h-0.852V-31.409z M34.266-22.86h-2.297v-2.827
		c0-0.59,0.485-1.073,1.074-1.073h0.148c0.591,0,1.072,0.483,1.072,1.073v2.827H34.266z"/>
	<path fill="#FFFFFF" d="M28.15-26.728h-5.533c-0.186,0-0.334,0.149-0.334,0.333v4.104c0,0.183,0.148,0.333,0.334,0.333h5.533
		c0.183,0,0.334-0.15,0.334-0.333v-4.104C28.484-26.579,28.333-26.728,28.15-26.728z M25.15-23.313h-0.797v-0.798h0.797V-23.313z
		 M25.15-24.576h-0.797v-0.797h0.797V-24.576z M26.414-23.313h-0.798v-0.798h0.798V-23.313z M26.414-24.576h-0.797v-0.797h0.797
		V-24.576z"/>
	<path fill="#FFFFFF" d="M22.613-27.494h5.533c0.185,0,0.334-0.15,0.334-0.333v-2.211c0-0.184-0.149-0.333-0.334-0.333h-5.533
		c-0.186,0-0.334,0.149-0.334,0.333v2.211C22.279-27.644,22.43-27.494,22.613-27.494z"/>
</g>
</svg>
