<?xml version="1.0" encoding="utf-8"?>
<!-- Generator: Adobe Illustrator 16.0.0, SVG Export Plug-In . SVG Version: 6.00 Build 0)  -->
<!DOCTYPE svg PUBLIC "-//W3C//DTD SVG 1.1//EN" "http://www.w3.org/Graphics/SVG/1.1/DTD/svg11.dtd">
<svg version="1.1" id="图层_1" xmlns="http://www.w3.org/2000/svg" xmlns:xlink="http://www.w3.org/1999/xlink" x="0px" y="0px"
	 width="110px" height="110.832px" viewBox="0 0 110 110.832" enable-background="new 0 0 110 110.832" xml:space="preserve">
<path fill="#FF9D34" d="M54,15.124c-23.356,0-42.292,18.936-42.292,42.292c0,23.355,18.936,42.292,42.292,42.292
	c23.355,0,42.292-18.937,42.292-42.292C96.292,34.06,77.355,15.124,54,15.124L54,15.124z M73.354,61.287H34.646
	c-2.138,0-3.872-1.734-3.872-3.871c0-2.138,1.734-3.874,3.872-3.874h38.708c2.137,0,3.871,1.736,3.871,3.874
	C77.226,59.553,75.491,61.286,73.354,61.287L73.354,61.287z"/>
</svg>
