<?xml version="1.0" encoding="utf-8"?>
<!-- Generator: Adobe Illustrator 16.0.0, SVG Export Plug-In . SVG Version: 6.00 Build 0)  -->
<!DOCTYPE svg PUBLIC "-//W3C//DTD SVG 1.1//EN" "http://www.w3.org/Graphics/SVG/1.1/DTD/svg11.dtd">
<svg version="1.1" id="图层_1" xmlns="http://www.w3.org/2000/svg" xmlns:xlink="http://www.w3.org/1999/xlink" x="0px" y="0px"
	 width="20px" height="112.997px" viewBox="0 0 20 112.997" enable-background="new 0 0 20 112.997" xml:space="preserve">
<circle fill="#F2D08D" cx="10" cy="10" r="10"/>
<g>
	<g>
		<path fill="#FFFFFF" d="M9.995,13.51c-2.303,0-4.188-1.883-4.188-4.187s1.886-4.188,4.188-4.188c2.304,0,4.188,1.884,4.188,4.188
			C14.183,11.627,12.298,13.51,9.995,13.51L9.995,13.51z M9.995,5.973c-1.842,0-3.35,1.508-3.35,3.35c0,1.843,1.508,3.35,3.35,3.35
			c1.844,0,3.351-1.508,3.351-3.35S11.838,5.973,9.995,5.973L9.995,5.973z M14.853,16.86c-0.104,0-0.23-0.042-0.313-0.126
			c-1.193-1.276-2.807-1.968-4.544-1.968s-3.35,0.691-4.564,1.968c-0.168,0.168-0.419,0.168-0.586,0.023
			c-0.168-0.167-0.168-0.419-0.021-0.587c1.361-1.444,3.203-2.24,5.171-2.24c1.971,0,3.812,0.795,5.174,2.22
			c0.167,0.168,0.146,0.44-0.021,0.585C15.062,16.818,14.958,16.86,14.853,16.86L14.853,16.86z"/>
	</g>
</g>
<circle fill="#F2D08D" cx="10" cy="33.198" r="10"/>
<g>
	<path fill="#FFFFFF" d="M7.147,28.504c-1.011,0-1.805,0.794-1.805,1.805c0,4.188,3.394,7.583,7.583,7.583
		c0.217,0,0.432,0,0.577-0.073c0.217-0.073,0.361,0,0.434,0.216c0.072,0.218,0,0.362-0.217,0.433
		c-0.289,0.073-0.577,0.146-0.867,0.146c-4.549,0-8.233-3.683-8.233-8.305c0-1.372,1.155-2.527,2.527-2.527
		c0.145,0,0.362,0,0.505,0.073c0.145,0,0.217,0.072,0.217,0.144l1.589,2.815c0.072,0.074,0.072,0.218,0,0.29
		c-0.145,0.506-0.433,0.938-0.867,1.228c0.434,1.011,1.228,1.806,2.238,2.239c0.145-0.217,0.362-0.433,0.65-0.578
		c0.073-0.072,0.217-0.072,0.289-0.072l3.104,0.867c0.074,0,0.217,0.072,0.217,0.217c0.145,0.36,0.289,0.722,0.289,1.155
		c0,0.289-0.072,0.578-0.145,0.866c-0.072,0.217-0.287,0.289-0.433,0.217c-0.216-0.072-0.288-0.288-0.216-0.432
		c0.072-0.217,0.072-0.361,0.072-0.578c0-0.216-0.072-0.433-0.145-0.65l-2.815-0.722c-0.218,0.145-0.361,0.289-0.433,0.505
		c-0.072,0.146-0.29,0.217-0.435,0.146c-1.371-0.579-2.455-1.662-3.032-3.033c-0.073-0.145,0-0.361,0.145-0.433
		c0.361-0.217,0.577-0.505,0.794-0.866l-1.444-2.528C7.292,28.504,7.219,28.504,7.147,28.504L7.147,28.504z"/>
</g>
<circle fill="#F2D08D" cx="10" cy="56.088" r="10"/>
<g>
	<path fill="#FFFFFF" d="M12.678,58.805h-0.766c-0.229,0-0.382-0.155-0.382-0.389c0-0.232,0.152-0.389,0.382-0.389h0.766
		c0.229,0,0.382,0.156,0.382,0.389C13.06,58.649,12.907,58.805,12.678,58.805L12.678,58.805z M8.853,54.147h-1.53
		c-0.23,0-0.383-0.155-0.383-0.389c0-0.232,0.153-0.388,0.383-0.388h1.53c0.229,0,0.382,0.155,0.382,0.388
		C9.235,53.992,9.082,54.147,8.853,54.147L8.853,54.147z M8.853,56.476h-1.53c-0.23,0-0.383-0.155-0.383-0.389
		c0-0.232,0.153-0.389,0.383-0.389h1.53c0.229,0,0.382,0.156,0.382,0.389C9.235,56.321,9.082,56.476,8.853,56.476L8.853,56.476z
		 M8.853,58.805h-1.53c-0.23,0-0.383-0.155-0.383-0.389c0-0.232,0.153-0.389,0.383-0.389h1.53c0.229,0,0.382,0.156,0.382,0.389
		C9.235,58.649,9.082,58.805,8.853,58.805L8.853,58.805z M12.678,56.476h-0.766c-0.229,0-0.382-0.155-0.382-0.389
		c0-0.232,0.152-0.389,0.382-0.389h0.766c0.229,0,0.382,0.156,0.382,0.389C13.06,56.321,12.907,56.476,12.678,56.476L12.678,56.476z
		"/>
	<path fill="#FFFFFF" d="M10.766,60.356h4.972c0.229,0,0.383,0.156,0.383,0.389c0,0.232-0.153,0.388-0.383,0.388H4.262
		c-0.229,0-0.382-0.156-0.382-0.388c0-0.233,0.153-0.389,0.382-0.389H5.41V53.06c0-0.698,0.076-1.008,0.23-1.241
		c0.076-0.233,0.306-0.466,0.535-0.543c0.229-0.155,0.536-0.233,1.224-0.233h1.454c0.688,0,0.918,0.078,1.148,0.233
		c0.229,0.156,0.458,0.31,0.612,0.622c0.153,0.31,0.153,0.465,0.153,1.164v0.544c0.229-0.157,0.535-0.233,1.147-0.233h0.766
		c0.612,0,0.918,0.077,1.148,0.233c0.229,0.154,0.459,0.31,0.612,0.621c0.152,0.233,0.229,0.543,0.229,1.165v3.882
		c0,0.232-0.153,0.389-0.382,0.389c-0.229,0-0.384-0.156-0.384-0.389V55.39c0-0.465,0-0.621-0.075-0.775
		c-0.077-0.156-0.154-0.233-0.229-0.233c-0.154-0.077-0.307-0.077-0.765-0.077h-0.767c-0.459,0-0.612,0-0.766,0.077
		s-0.229,0.155-0.229,0.233c-0.077,0.155-0.077,0.31-0.077,0.775v4.968h-0.229V60.356L10.766,60.356z M10,60.356V53.06
		c0-0.542,0-0.698-0.076-0.854c-0.076-0.155-0.153-0.233-0.229-0.233c-0.23-0.156-0.383-0.156-0.918-0.156H7.4
		c-0.535,0-0.688,0-0.841,0.078c-0.153,0.077-0.229,0.155-0.306,0.31c-0.077,0.156-0.077,0.311-0.077,0.854v7.297L10,60.356
		L10,60.356z"/>
</g>
<circle fill="#F2D08D" cx="10" cy="78.792" r="10"/>
<g>
	<g>
		<path fill="#FFFFFF" d="M12.68,81.118l2.771,2.773c0.146,0.146,0.146,0.364,0,0.51c-0.145,0.146-0.364,0.146-0.51,0l-2.772-2.772
			c-0.803,0.657-1.75,1.022-2.846,1.022c-2.406,0-4.376-1.971-4.376-4.377s1.97-4.376,4.376-4.376c1.97,0,3.647,1.313,4.231,3.211
			c0.073,0.218-0.074,0.363-0.219,0.437c-0.22,0.073-0.366-0.073-0.439-0.22C12.461,75.795,11,74.7,9.396,74.7
			c-2.042,0-3.647,1.605-3.647,3.647c0,2.043,1.605,3.647,3.647,3.647c1.678,0,3.065-1.095,3.501-2.626
			c0.074-0.219,0.293-0.292,0.439-0.219c0.219,0.073,0.291,0.291,0.219,0.438C13.336,80.097,13.044,80.608,12.68,81.118
			L12.68,81.118z"/>
	</g>
</g>
<circle fill="#F2D08D" cx="10.255" cy="101.793" r="10"/>
<g>
	<path fill="#FFFFFF" d="M8.094,107.311c-0.113,0-0.207-0.037-0.282-0.131c-0.132-0.15-0.113-0.395,0.057-0.525l2.049-1.711
		c0.206-0.17,0.451-0.264,0.715-0.264h3.853c0.206,0,0.376-0.17,0.376-0.375v-6.016c0-0.207-0.17-0.377-0.376-0.377H6.213
		c-0.207,0-0.375,0.17-0.375,0.377v6.016c0,0.205,0.169,0.375,0.375,0.375h1.504c0.207,0,0.376,0.17,0.376,0.377
		c0,0.205-0.169,0.375-0.376,0.375H6.213c-0.62,0-1.128-0.508-1.128-1.129v-6.014c0-0.621,0.508-1.129,1.128-1.129h8.272
		c0.62,0,1.128,0.508,1.128,1.129v6.014c0,0.621-0.508,1.129-1.128,1.129h-3.872c-0.095,0-0.17,0.037-0.244,0.094l-2.049,1.711
		C8.263,107.273,8.188,107.311,8.094,107.311L8.094,107.311z M7.718,101.859c-0.207,0-0.376-0.17-0.376-0.375v-0.377
		c0-0.205,0.169-0.375,0.376-0.375s0.376,0.17,0.376,0.375v0.377C8.094,101.689,7.925,101.859,7.718,101.859L7.718,101.859z
		 M10.35,101.859c-0.206,0-0.375-0.17-0.375-0.375v-0.377c0-0.205,0.169-0.375,0.375-0.375c0.207,0,0.377,0.17,0.377,0.375v0.377
		C10.727,101.689,10.557,101.859,10.35,101.859L10.35,101.859z M12.981,101.859c-0.206,0-0.376-0.17-0.376-0.375v-0.377
		c0-0.205,0.17-0.375,0.376-0.375s0.375,0.17,0.375,0.375v0.377C13.356,101.689,13.188,101.859,12.981,101.859L12.981,101.859z"/>
</g>
</svg>
