<?xml version="1.0" encoding="utf-8"?>
<!-- Generator: Adobe Illustrator 16.0.0, SVG Export Plug-In . SVG Version: 6.00 Build 0)  -->
<!DOCTYPE svg PUBLIC "-//W3C//DTD SVG 1.1//EN" "http://www.w3.org/Graphics/SVG/1.1/DTD/svg11.dtd">
<svg version="1.1" id="图层_1" xmlns="http://www.w3.org/2000/svg" xmlns:xlink="http://www.w3.org/1999/xlink" x="0px" y="0px"
	 width="35px" height="470.344px" viewBox="6.208 -9.594 35 470.344" enable-background="new 6.208 -9.594 35 470.344"
	 xml:space="preserve">
<circle fill="#FFB700" cx="23.708" cy="9.906" r="17.5"/>
<circle fill="#FFB700" cx="23.708" cy="49.906" r="17.5"/>
<circle fill="#FFB700" cx="23.708" cy="89.906" r="17.5"/>
<circle fill="#FFB700" cx="23.708" cy="129.906" r="17.5"/>
<circle fill="#FFB700" cx="23.708" cy="169.906" r="17.5"/>
<circle fill="#FFB700" cx="23.708" cy="209.906" r="17.499"/>
<circle fill="#FFB700" cx="23.708" cy="249.906" r="17.499"/>
<circle fill="#FFB700" cx="23.772" cy="289.904" r="17.499"/>
<circle fill="#FFB700" cx="23.708" cy="329.904" r="17.499"/>
<circle fill="#FFB700" cx="23.708" cy="369.904" r="17.499"/>
<circle fill="#FFB700" cx="23.708" cy="409.905" r="17.499"/>
<g>
	<path fill="#FFFFFF" d="M32.845,51.667l-8.718-8.436l-8.243,8.363c0,0,0,2.58,0,5.688c0,3.105,5.495,2.962,5.495,2.962l0.054-5.477
		h6.022v5.477c6.006,0.09,5.39-2.812,5.39-2.812V51.667z"/>
	<path fill="#FFFFFF" d="M35.747,48.296c-1.47-1.623-9.686-9.244-9.686-9.244s-2.07-1.625-3.811,0
		c-1.823,1.703-8.703,8.37-8.703,8.37s-2.084,1.809,0.255,3.734l10.298-10.257l10.72,10.291
		C34.821,51.19,37.215,49.923,35.747,48.296z"/>
</g>
<g>
	<g>
		<g>
			<g>
				<path fill="#FFFFFF" d="M19.7,82.175c0.287,0.301,0.279,0.8-0.016,1.108l-6.971,7.285c-0.296,0.31-0.775,0.317-1.063,0.018
					c-0.288-0.302-0.281-0.802,0.016-1.109l6.971-7.284C18.933,81.88,19.411,81.873,19.7,82.175z"/>
			</g>
		</g>
		<g>
			<g>
				<path fill="#FFFFFF" d="M18.682,82.175c-0.289,0.301-0.281,0.8,0.017,1.108l6.825,7.135c0.298,0.31,0.773,0.315,1.063,0.017
					c0.289-0.302,0.281-0.8-0.018-1.111l-6.826-7.133C19.447,81.88,18.969,81.873,18.682,82.175z"/>
			</g>
		</g>
		<g>
			<path fill="#FFFFFF" d="M24.226,90.428l-4.854-5.087c-0.133-0.14-0.348-0.14-0.479,0l-4.856,5.087
				c-0.131,0.139-0.24,0.412-0.24,0.606v5.687c0,0.195,0.154,0.355,0.339,0.355h3.326v-4.344c0-0.349,0.274-0.635,0.608-0.635h2.121
				c0.336,0,0.609,0.286,0.609,0.635v4.344h3.326c0.188,0,0.342-0.161,0.342-0.355v-5.687
				C24.465,90.841,24.357,90.566,24.226,90.428z"/>
		</g>
	</g>
	<path fill="#FFFFFF" d="M36.431,89.88c0,0.426-0.349,0.772-0.771,0.772h-9.423c-0.423,0-0.771-0.347-0.771-0.772
		c0-0.425,0.348-0.773,0.771-0.773h9.423C36.083,89.106,36.431,89.456,36.431,89.88z"/>
	<polygon fill="#FFFFFF" points="28.852,81.952 19.204,81.952 26.782,89.88 36.431,89.88 	"/>
	<path fill="#FFFFFF" d="M35.202,91.576h-9.203c-0.211,0-0.386,0.181-0.386,0.401v4.696c0,0.222,0.175,0.403,0.386,0.403H35.2
		c0.215,0,0.387-0.182,0.387-0.403v-4.696C35.586,91.756,35.415,91.576,35.202,91.576z M29.225,95.534h-1.85v-2.528h1.85V95.534z
		 M31.981,95.534h-1.846v-2.528h1.846V95.534z"/>
</g>
<path fill="#FFFFFF" d="M14.667,120.332v19.974H34.25v-19.974H14.667L14.667,120.332z M23.146,132.873H18.78v-1.668h4.365
	L23.146,132.873L23.146,132.873z M23.146,129.43H18.78v-1.667h4.365L23.146,129.43L23.146,129.43z M30.135,132.873h-4.364v-1.668
	h4.364V132.873z M30.135,129.43h-4.364v-1.667h4.364V129.43z"/>
<path fill="#FFFFFF" d="M15.418,199.411v20.198h18.109v-20.198H15.418z M23.261,216.831h-4.037v-1.688h4.037V216.831z
	 M23.261,213.347h-4.037v-1.686h4.037V213.347z M29.721,216.831h-4.034v-1.688h4.034V216.831z M29.721,213.347h-4.034v-1.686h4.034
	V213.347z"/>
<path fill="#FFFFFF" d="M15.25,239.873v18.716h18.667v-18.716H15.25z M23.333,242.463H19.17v-1.562h4.162V242.463z M29.995,242.463
	h-4.162v-1.562h4.162V242.463z"/>
<path fill="#FFFFFF" d="M14.888,280.732v19.524h18.843v-19.524H14.888z M23.045,299.175h-4.2v-1.632h4.2V299.175z M29.772,299.175
	h-4.201v-1.632h4.201V299.175z"/>
<path fill="#FFFFFF" d="M15.389,159.163v20.506h18.139v-20.506H15.389z M23.243,167.26H19.2v-1.715h4.043V167.26z M23.243,163.725
	H19.2v-1.712h4.043V163.725z M29.713,167.26H25.67v-1.715h4.043V167.26L29.713,167.26z M29.713,163.725H25.67v-1.712h4.043V163.725
	L29.713,163.725z"/>
<g>
	<path fill="#FFFFFF" d="M16.331,327.36c0.333-1.377,0.575-2.796,2.338-2.641c0.486,0.042,0.922,0.292,0.995,1.019
		c0.024,0.246,0.239,0.43,0.397,0.024c0.332-0.847,1.229-0.787,1.561-0.02c0.382,0.894,0.033,2.107-0.422,3.35
		c-1.521,4.143-4.255,6.393-8.289,7.089c-1.774,0.303-2.329-0.049-1.296-0.778C14.763,333.182,15.415,331.153,16.331,327.36z"/>
	<path fill="#FFFFFF" d="M18.165,324.182c0.988-0.222,1.576,0.186,1.706,1.156c0.015,0.106,0.036,0.177,0.116,0.03
		c0.356-0.636,0.93-0.613,1.399-0.063c0.107-0.363-0.112-0.705-0.479-0.976c-0.248-0.183-0.551-0.257-0.664-0.583
		c-0.129-0.363,0.113-0.771,0.531-0.801c0.358,0,0.131-0.73,0.052-0.73c-0.937,0.063-1.123,1.341-0.839,2.057
		c-0.118-0.134-0.215-0.283-0.262-0.459c-0.144-0.035-0.285-0.06-0.422-0.072C18.738,323.687,18.258,323.808,18.165,324.182z"/>
</g>
<g>
	<path fill="#FFFFFF" d="M31.444,327.4c0.334-1.377,0.576-2.794,2.34-2.644c0.792,0.07,0.527,0.163,0.074,0.349
		c-0.594,0.241-1.19,1.421-1.479,2.624c-0.598,2.466-1.115,4.276-2.246,5.874c-1.255,1.771-0.417,1.358,0.699,0.806
		c2.615-1.308,4.607-4.103,5.322-6.826c0.123-0.466,0.189-0.896,0.195-1.379c0.008-0.477,0.002-0.805,0.297-0.278
		c0.478,0.845,0.125,1.966-0.334,3.21c-1.52,4.14-4.254,6.393-8.285,7.086c-1.775,0.306-2.334-0.046-1.299-0.776
		C29.876,333.22,30.528,331.195,31.444,327.4z"/>
	<path fill="#FFFFFF" d="M33.278,324.222c0.988-0.222,1.578,0.184,1.705,1.155c0.019,0.109,0.035,0.178,0.119,0.033
		c0.354-0.637,0.928-0.614,1.396-0.063c0.107-0.365-0.107-0.705-0.48-0.977c-0.248-0.182-0.549-0.255-0.664-0.584
		c-0.127-0.362,0.112-0.771,0.531-0.798c0.363,0,0.133-0.733,0.057-0.733c-0.94,0.063-1.127,1.343-0.84,2.06
		c-0.119-0.133-0.215-0.282-0.265-0.46c-0.146-0.034-0.286-0.06-0.422-0.071C33.852,323.727,33.375,323.848,33.278,324.222z"/>
</g>
<g>
	<path fill="#FFFFFF" d="M30.854,408.391c0.325-1.318,0.561-2.679,2.285-2.532c0.773,0.065,0.52,0.156,0.072,0.333
		c-0.578,0.229-1.162,1.362-1.444,2.518c-0.581,2.366-1.089,4.105-2.192,5.637c-1.229,1.7-0.408,1.305,0.68,0.771
		c2.561-1.255,4.506-3.936,5.205-6.548c0.119-0.448,0.188-0.861,0.192-1.326c0.004-0.453,0.002-0.769,0.289-0.266
		c0.466,0.811,0.121,1.887-0.325,3.078c-1.484,3.974-4.158,6.134-8.104,6.798c-1.734,0.291-2.278-0.045-1.27-0.743
		C29.319,413.977,29.958,412.029,30.854,408.391z"/>
	<path fill="#FFFFFF" d="M32.648,405.342c0.965-0.211,1.541,0.181,1.666,1.109c0.017,0.104,0.035,0.17,0.112,0.031
		c0.352-0.611,0.91-0.588,1.369-0.06c0.104-0.351-0.107-0.677-0.467-0.937c-0.244-0.177-0.539-0.247-0.652-0.563
		c-0.123-0.346,0.107-0.736,0.52-0.764c0.355,0,0.129-0.704,0.053-0.704c-0.916,0.063-1.1,1.288-0.818,1.977
		c-0.115-0.129-0.21-0.272-0.258-0.442c-0.143-0.031-0.277-0.056-0.414-0.068C33.208,404.87,32.739,404.982,32.648,405.342z"/>
</g>
<g>
	<path fill="#FFFFFF" d="M24.005,327.4c0.331-1.377,0.575-2.794,2.34-2.644c0.791,0.07,0.525,0.163,0.072,0.349
		c-0.592,0.241-1.188,1.421-1.478,2.624c-0.598,2.466-1.114,4.276-2.246,5.874c-1.256,1.771-0.418,1.358,0.697,0.806
		c2.617-1.308,4.609-4.103,5.323-6.826c0.122-0.466,0.188-0.896,0.195-1.379c0.007-0.477,0.005-0.805,0.298-0.278
		c0.477,0.845,0.125,1.966-0.333,3.21c-1.519,4.14-4.256,6.393-8.288,7.086c-1.774,0.306-2.331-0.046-1.298-0.776
		C22.436,333.22,23.087,331.195,24.005,327.4z"/>
	<path fill="#FFFFFF" d="M25.837,324.222c0.989-0.222,1.576,0.184,1.704,1.155c0.018,0.109,0.038,0.178,0.115,0.033
		c0.359-0.637,0.931-0.614,1.398-0.063c0.111-0.365-0.107-0.705-0.476-0.977c-0.253-0.182-0.554-0.255-0.667-0.584
		c-0.126-0.362,0.113-0.771,0.533-0.798c0.356,0,0.134-0.733,0.053-0.733c-0.939,0.063-1.122,1.343-0.844,2.06
		c-0.114-0.133-0.211-0.282-0.26-0.46c-0.146-0.034-0.285-0.06-0.42-0.071C26.413,323.727,25.932,323.848,25.837,324.222z"/>
</g>
<g>
	<path fill="#FFFFFF" d="M15.595,367.737c0.323-1.204,0.557-2.445,2.264-2.31c0.471,0.034,0.892,0.255,0.964,0.891
		c0.023,0.215,0.229,0.376,0.383,0.021c0.321-0.739,1.19-0.689,1.511-0.017c0.371,0.781,0.034,1.844-0.408,2.932
		c-1.47,3.624-4.118,5.597-8.021,6.202c-1.717,0.268-2.255-0.042-1.255-0.679C14.076,372.832,14.708,371.058,15.595,367.737z"/>
	<path fill="#FFFFFF" d="M17.372,364.955c0.956-0.193,1.525,0.161,1.65,1.015c0.014,0.094,0.033,0.153,0.111,0.027
		c0.346-0.558,0.898-0.537,1.354-0.056c0.105-0.32-0.106-0.617-0.461-0.855c-0.24-0.158-0.533-0.223-0.646-0.51
		c-0.121-0.316,0.111-0.674,0.516-0.699c0.35,0,0.127-0.641,0.049-0.641c-0.905,0.057-1.086,1.174-0.81,1.803
		c-0.116-0.117-0.208-0.25-0.255-0.402c-0.139-0.031-0.274-0.051-0.407-0.063C17.925,364.523,17.461,364.627,17.372,364.955z"/>
</g>
<g>
	<path fill="#FFFFFF" d="M23.035,367.737c0.321-1.204,0.557-2.445,2.263-2.31c0.471,0.034,0.893,0.255,0.963,0.891
		c0.023,0.215,0.232,0.376,0.385,0.021c0.322-0.739,1.191-0.689,1.51-0.017c0.371,0.781,0.033,1.844-0.406,2.932
		c-1.469,3.624-4.118,5.597-8.021,6.202c-1.719,0.268-2.254-0.042-1.255-0.679C21.516,372.832,22.145,371.058,23.035,367.737z"/>
	<path fill="#FFFFFF" d="M24.809,364.955c0.957-0.193,1.525,0.161,1.649,1.015c0.017,0.094,0.036,0.153,0.11,0.027
		c0.346-0.558,0.898-0.537,1.356-0.056c0.104-0.32-0.106-0.617-0.467-0.855c-0.238-0.158-0.532-0.223-0.642-0.51
		c-0.125-0.316,0.108-0.674,0.514-0.699c0.352,0,0.128-0.641,0.052-0.641c-0.905,0.057-1.087,1.174-0.812,1.803
		c-0.116-0.117-0.209-0.25-0.256-0.402c-0.137-0.031-0.274-0.051-0.405-0.063C25.366,364.523,24.899,364.627,24.809,364.955z"/>
</g>
<g>
	<path fill="#FFFFFF" d="M30.149,367.695c0.321-1.205,0.561-2.446,2.263-2.313c0.474,0.039,0.892,0.259,0.964,0.894
		c0.023,0.215,0.232,0.378,0.384,0.021c0.322-0.739,1.19-0.688,1.511-0.017c0.371,0.781,0.033,1.843-0.408,2.93
		c-1.471,3.628-4.116,5.597-8.021,6.205c-1.715,0.264-2.254-0.041-1.255-0.681C28.627,372.788,29.262,371.014,30.149,367.695z"/>
	<path fill="#FFFFFF" d="M31.922,364.914c0.957-0.193,1.527,0.161,1.65,1.011c0.017,0.097,0.035,0.157,0.113,0.027
		c0.346-0.557,0.899-0.536,1.354-0.052c0.104-0.32-0.106-0.619-0.462-0.856c-0.242-0.159-0.533-0.224-0.645-0.51
		c-0.125-0.316,0.106-0.677,0.516-0.699c0.349,0,0.126-0.642,0.049-0.642c-0.906,0.057-1.087,1.175-0.809,1.802
		c-0.117-0.116-0.209-0.248-0.26-0.401c-0.14-0.03-0.271-0.052-0.406-0.063C32.477,364.48,32.014,364.586,31.922,364.914z"/>
</g>
<g>
	<path fill="#FFFFFF" d="M16.063,408.394c0.326-1.318,0.564-2.681,2.287-2.531c0.475,0.039,0.9,0.281,0.973,0.976
		c0.024,0.238,0.234,0.415,0.389,0.023c0.324-0.809,1.201-0.755,1.523-0.018c0.376,0.857,0.035,2.021-0.41,3.212
		c-1.486,3.975-4.16,6.134-8.104,6.798c-1.734,0.291-2.278-0.045-1.268-0.741C14.529,413.978,15.167,412.033,16.063,408.394z"/>
	<path fill="#FFFFFF" d="M17.857,405.344c0.965-0.212,1.54,0.179,1.667,1.11c0.014,0.104,0.035,0.17,0.114,0.032
		c0.35-0.613,0.909-0.591,1.366-0.063c0.107-0.35-0.105-0.676-0.467-0.936c-0.244-0.177-0.539-0.247-0.65-0.561
		c-0.125-0.348,0.109-0.737,0.52-0.768c0.352,0,0.129-0.701,0.053-0.701c-0.916,0.061-1.1,1.286-0.82,1.977
		c-0.116-0.131-0.21-0.273-0.258-0.444c-0.139-0.032-0.277-0.056-0.41-0.068C18.418,404.871,17.948,404.985,17.857,405.344z"/>
</g>
<g>
	<path fill="#FFFFFF" d="M23.579,408.394c0.323-1.318,0.563-2.681,2.287-2.531c0.475,0.039,0.9,0.281,0.975,0.976
		c0.021,0.238,0.229,0.415,0.385,0.023c0.326-0.809,1.204-0.755,1.525-0.018c0.377,0.857,0.035,2.021-0.408,3.212
		c-1.487,3.975-4.161,6.134-8.105,6.798c-1.735,0.291-2.278-0.045-1.27-0.741C22.043,413.978,22.681,412.033,23.579,408.394z"/>
	<path fill="#FFFFFF" d="M25.372,405.344c0.965-0.212,1.539,0.179,1.664,1.11c0.016,0.104,0.035,0.17,0.116,0.032
		c0.349-0.613,0.907-0.591,1.367-0.063c0.104-0.35-0.106-0.676-0.468-0.936c-0.243-0.177-0.54-0.247-0.652-0.561
		c-0.126-0.348,0.109-0.737,0.521-0.768c0.354,0,0.127-0.701,0.051-0.701c-0.917,0.061-1.102,1.286-0.819,1.977
		c-0.116-0.131-0.209-0.273-0.26-0.444c-0.14-0.032-0.274-0.056-0.411-0.068C25.932,404.871,25.463,404.985,25.372,405.344z"/>
</g>
<g>
	<g>
		<path fill="#FFFFFF" d="M34.954,5.588l-5.768-6.25c-0.126-0.136-0.293-0.202-0.458-0.2c-0.163-0.002-0.332,0.064-0.457,0.2
			l-5.767,6.25c-0.055,0.06-0.094,0.126-0.125,0.196h1.676l4.674-5.063l5.357,5.806c0.244,0.267,0.641,0.271,0.879,0.015
			C35.204,6.281,35.196,5.854,34.954,5.588z"/>
		<path fill="#FFFFFF" d="M28.928,2.238c-0.11-0.117-0.287-0.117-0.398,0l-4.016,4.365c-0.108,0.118-0.199,0.354-0.199,0.521v11.707
			c0,0.167,0.126,0.305,0.282,0.305h8.262c0.156,0,0.283-0.138,0.283-0.305V7.125c0-0.167-0.089-0.401-0.201-0.521L28.928,2.238z
			 M29.057,5.928h0.961V6.97h-0.961V5.928z M29.057,7.577h0.961v1.04h-0.961V7.577z M27.538,5.928h0.961V6.97h-0.961V5.928z
			 M27.538,7.577h0.961v1.04h-0.961V7.577z M30.031,17.701H27.44v-3.454c0-0.724,0.546-1.314,1.211-1.314h0.169
			c0.667,0,1.211,0.591,1.211,1.314V17.701L30.031,17.701z"/>
	</g>
	<path fill="#FFFFFF" d="M23.708,4.427H12.219c-0.407,0-0.738,0.309-0.738,0.688c0,0.377,0.332,0.688,0.738,0.688h11.488V4.427
		L23.708,4.427z"/>
	<path fill="#FFFFFF" d="M12.219,6.746c-0.239,0-0.434,0.212-0.434,0.47v11.469c0,0.259,0.196,0.47,0.434,0.47h12.095V6.746H12.219z
		 M22.249,10.463c0.469,0.095,0.823,0.537,0.828,1.068h-0.828V10.463z M18.592,10.463c0.467,0.095,0.823,0.537,0.829,1.068h-0.829
		V10.463z M14.936,10.463c0.466,0.095,0.823,0.537,0.829,1.068h-0.829V10.463z M14.424,14.438h-0.83v-2.351h0.83V14.438z
		 M14.424,11.532h-0.828c0.005-0.531,0.36-0.973,0.828-1.068V11.532z M15.765,14.438h-0.83v-2.351h0.83V14.438z M18.08,14.438
		h-0.829v-2.351h0.829V14.438z M18.08,11.532h-0.829c0.005-0.531,0.361-0.973,0.829-1.068V11.532z M19.42,14.438h-0.829v-2.351
		h0.829V14.438z M21.737,14.438h-0.828v-2.351h0.828V14.438z M21.737,11.532h-0.828c0.004-0.531,0.361-0.973,0.828-1.068V11.532z
		 M23.077,14.438h-0.828v-2.351h0.828V14.438z"/>
	<polygon fill="#FFFFFF" points="13.974,2.15 25.613,2.15 23.301,4.667 11.661,4.667 	"/>
</g>
</svg>
