<?xml version="1.0" encoding="utf-8"?>
<!-- Generator: Adobe Illustrator 16.0.0, SVG Export Plug-In . SVG Version: 6.00 Build 0)  -->
<!DOCTYPE svg PUBLIC "-//W3C//DTD SVG 1.1//EN" "http://www.w3.org/Graphics/SVG/1.1/DTD/svg11.dtd">
<svg version="1.1" id="图层_1" xmlns="http://www.w3.org/2000/svg" xmlns:xlink="http://www.w3.org/1999/xlink" x="0px" y="0px"
	 width="110px" height="110.832px" viewBox="0 0 110 110.832" enable-background="new 0 0 110 110.832" xml:space="preserve">
<path fill="#EC5650" d="M56.334,12.58c-23.391,0-42.376,18.985-42.376,42.376s18.985,42.376,42.376,42.376
	S98.71,78.347,98.71,54.956S79.725,12.58,56.334,12.58z M56.334,81.483c-2.203,0-3.983-1.78-3.983-3.982
	c0-2.205,1.78-3.984,3.983-3.984s3.982,1.779,3.982,3.984C60.316,79.703,58.537,81.483,56.334,81.483z M60.316,61.609
	c0,2.203-1.779,3.983-3.982,3.983s-3.983-1.78-3.983-3.983V32.455c0-2.203,1.78-3.984,3.983-3.984s3.982,1.781,3.982,3.984V61.609z"
	/>
</svg>
