<?xml version="1.0" encoding="utf-8"?>
<!-- Generator: Adobe Illustrator 16.0.0, SVG Export Plug-In . SVG Version: 6.00 Build 0)  -->
<!DOCTYPE svg PUBLIC "-//W3C//DTD SVG 1.1//EN" "http://www.w3.org/Graphics/SVG/1.1/DTD/svg11.dtd">
<svg version="1.1" id="图层_1" xmlns="http://www.w3.org/2000/svg" xmlns:xlink="http://www.w3.org/1999/xlink" x="0px" y="0px"
	 width="23px" height="292px" viewBox="0 0 23 292" enable-background="new 0 0 23 292" xml:space="preserve">
<metadata><?xpacket begin="﻿" id="W5M0MpCehiHzreSzNTczkc9d"?>
<x:xmpmeta xmlns:x="adobe:ns:meta/" x:xmptk="Adobe XMP Core 5.3-c011 66.145661, 2012/02/06-14:56:27        ">
   <rdf:RDF xmlns:rdf="http://www.w3.org/1999/02/22-rdf-syntax-ns#">
      <rdf:Description rdf:about=""
            xmlns:xmp="http://ns.adobe.com/xap/1.0/"
            xmlns:xmpGImg="http://ns.adobe.com/xap/1.0/g/img/">
         <xmp:CreatorTool>Adobe Illustrator CS6 (Windows)</xmp:CreatorTool>
         <xmp:CreateDate>2018-09-05T10:14:42+08:00</xmp:CreateDate>
         <xmp:Thumbnails>
            <rdf:Alt>
               <rdf:li rdf:parseType="Resource">
                  <xmpGImg:width>16</xmpGImg:width>
                  <xmpGImg:height>256</xmpGImg:height>
                  <xmpGImg:format>JPEG</xmpGImg:format>
                  <xmpGImg:image>/9j/4AAQSkZJRgABAgEASABIAAD/7QAsUGhvdG9zaG9wIDMuMAA4QklNA+0AAAAAABAASAAAAAEA&#xA;AQBIAAAAAQAB/+4ADkFkb2JlAGTAAAAAAf/bAIQABgQEBAUEBgUFBgkGBQYJCwgGBggLDAoKCwoK&#xA;DBAMDAwMDAwQDA4PEA8ODBMTFBQTExwbGxscHx8fHx8fHx8fHwEHBwcNDA0YEBAYGhURFRofHx8f&#xA;Hx8fHx8fHx8fHx8fHx8fHx8fHx8fHx8fHx8fHx8fHx8fHx8fHx8fHx8fHx8f/8AAEQgBAAAQAwER&#xA;AAIRAQMRAf/EAaIAAAAHAQEBAQEAAAAAAAAAAAQFAwIGAQAHCAkKCwEAAgIDAQEBAQEAAAAAAAAA&#xA;AQACAwQFBgcICQoLEAACAQMDAgQCBgcDBAIGAnMBAgMRBAAFIRIxQVEGE2EicYEUMpGhBxWxQiPB&#xA;UtHhMxZi8CRygvElQzRTkqKyY3PCNUQnk6OzNhdUZHTD0uIIJoMJChgZhJRFRqS0VtNVKBry4/PE&#xA;1OT0ZXWFlaW1xdXl9WZ2hpamtsbW5vY3R1dnd4eXp7fH1+f3OEhYaHiImKi4yNjo+Ck5SVlpeYmZ&#xA;qbnJ2en5KjpKWmp6ipqqusra6voRAAICAQIDBQUEBQYECAMDbQEAAhEDBCESMUEFURNhIgZxgZEy&#xA;obHwFMHR4SNCFVJicvEzJDRDghaSUyWiY7LCB3PSNeJEgxdUkwgJChgZJjZFGidkdFU38qOzwygp&#xA;0+PzhJSktMTU5PRldYWVpbXF1eX1RlZmdoaWprbG1ub2R1dnd4eXp7fH1+f3OEhYaHiImKi4yNjo&#xA;+DlJWWl5iZmpucnZ6fkqOkpaanqKmqq6ytrq+v/aAAwDAQACEQMRAD8ALB5Q1H87/wA8fOWl+YtZ&#xA;uLTSPLM9zb2VtB8QRYLg20YjR6onLhzkNKk/gqyn/nE3Xtftdd83eQr69e/07QJSLCSQn92Y53gk&#xA;CAluKScQ3GtAfmcVQf5Dappth/zkH+aMN7dRWstxe37QLM4j5hNQkZuPIitFavy3xVT/AOcWp4br&#xA;83vzGu7ZxNazSyvFOh5IyyXsjIQw2IYbjFXpP5lf84z/AJfee9bfXLl7rS9Vmp9bmsWjCzlRxDSJ&#xA;Ikg50AHJaV71xVln5bflb5R/LvSJdN8uwyD6wwkvLy4YSXE7KKKZGARfhB2VVAG+25xV5V+f/wDz&#xA;kL5m8p6zceXPKGn873S4orvW9UuIvVihinKLEqKDT4mlQF37mgHfFXqH5N+adW81/lpofmDV2R9R&#xA;v4pHuGiUIhKzOgoo6fCoxVin/OTemadbfkr5xvYLeOO8vm05ry4VQJJTHe20ac26niq0AxVNP+cb&#xA;v/JJeVv+ME3/AFEy4qmH54eUNZ84fldrXlzRVjfU776r9XWVxGh9G7hmerHp8EZxVX/Jvytq3lT8&#xA;tND8v6uqJqNhFIlwsTB0BaZ3FGHX4WGKsR/M3/nJ7yL5F1yXQWt7nV9Wt6fW4rXgsUJYBuDyuRV+&#xA;LA0VTToSDirK/wArvzd8pfmRpk95oTyxT2bKt9YXKhJ4S9eBPFnVlbieLA9ux2xVJtc8v/lR+Vdx&#xA;rv5m3du0Op3xmNxM8rSyTzXT+qYbeOVuIeRh0WlFr+yDirzn/nEfy1r1xqfmf8wb22Ww03zBI6WF&#xA;rGOEblp2llaNBSkcR+BPp8MVeZ/nP571HzR+b89t5p0+9uPJ/lu/ns4NJsuS+sttI0bScyKcp2T4&#xA;mG4TYeOKvon8mvzr0jzvfS+X9M8uXWhW2l2ayQibiIhFGyRLEiqBSgbb2GKvQtc83eU9AaNdd1qw&#xA;0lpgTCt9dQ2xcDqV9Vkr9GKo+w1Cw1C0jvLC5ivLOYcobmB1ljceKuhKn6MVfPnmP/nHvQ5vNnmT&#xA;z9+a3mFLjQZmdrdEkktxbJJKI7dHkNdo1ZURV6t44qlf/OG89+mp+c7GwlnuPJ8E6HTppgQvq83C&#xA;lQaAO8IUyAD+WvbFWV3352flX53ufMv5e+fLZtCtLR2iuRqFx6CTvaThqJJEUZWV4ldRX4vfFWG/&#xA;84gX1wnnDzpo+jXM115Kt2M1g8tQORnKW8nE04vLApLbb8fbFXtPnT8jPyu85aidT13RUk1JgBJe&#xA;QSS28kgUUHqeiyBzTarAmm1cVZB5R8keVPJ+mfozy1psWm2Zbm6R8mZ2pTlJI5aRzTarMcVea/8A&#xA;OTv5q33kryjbadoVw0HmbXJRHZyRUMkMERDSyKKH4mJWNdv2jTpirPvyy0vzLpnkjS4PNF/NqPmB&#xA;4hNqU85DMssvxmIUoKRAhPorir5Wg/MLyb5w/wCcipvNnnTU00/y1oDEaNBOkj+p9UfjbrxRXI5S&#xA;Fp2r3+HFXr//ADjl+fGofmC2pad5kmtI9dhYS2NpaxSR8rZVAkcljIuzsB9rFWVS/wDOOf5KyyvL&#xA;J5XgaSRizt61zuSak/3uKpH+Q/8Azj9D+W019qGpT2+pa1P+7tb6ASoY7dgOcZVjxPJlBrTFWOa9&#xA;/wA5N+c7fzzrvlby/wCRJtfl0W5mgdrN55pDHFJ6fqvHDBIVBNMVZ9+Uf5k+d/ONxqcXmXyZd+VE&#xA;s0ia2ku0uEE5kLBlX1oYfscR0r1xV4xH+Xv/ADkBa/nP5x1byVCmiR6rcXTJrN+kTQSW5nEiqnOO&#xA;4+JyBT9392KvQP8AnHX83fN/mnUfMHlHzqI28x+X3Ie5REiZwkhhmSRIwqco5AN1ABr023VY55u1&#xA;D/nIr8v/AMydY1XSbK985+VtUMz6dZ/v7uK3E0gkVBDCecTQn4BtxKd/BVNP+cZfyx856Pq3mLzx&#xA;5xtjY6r5gLCKzfaWkspnnkkSrcOT8Qqt8Wxr2qq9n82ebvLnlLRJdb8w3q2GmQMiSTsryHlIwVVV&#xA;Ild2JJ/ZU+PTFVTyz5m0XzPoltrmiTtc6XeBjbXDRSw8wrFCQkyxvTkpoSu/bFXyz/zll+YWna15&#xA;20nyFJem20LSZo7jXrmNTIVnlH7KCvJoYGNB/M5B6Yq+j/y082+RPMXle2/wXdRz6RpyR2aW6q0b&#xA;wCJAqRvG4V1+EbEjftXFXy35a1nyL5O/Pfz2/wCalgsxuLi8eylurX63EDNcGVWEXF/76JhwbjsN&#xA;tq4qyv8A5xBtpLnzl541vSLSSy8o3L+nYwvWikzvJBFWtGaGBqN1pyHjuq+iPMXkbyb5laJ9f0Sy&#xA;1SSHaGS6gjldR4KzAsB7VxVMdK0jStIsYrDSrOGwsYRSK1to1iiWu+yIABir428pfk555uPJ3mDz&#xA;L511/W/K0ehxvMlvOsxaeNIjISnqSx7lhxGx3xV6N/zhfB5juNB8ya3ql3PdWd5cW1rZG4keQhrV&#xA;ZGmK8ydj9YQbdx7Yqiv+cxfOM1p5S0zyZYEvf+Y7hWmhTdjb27KVWg3/AHk5Tj48Tir1z8sfJsPk&#xA;zyFovlxAPUsbdRdMOjXMhMk7fIyu1PbFWOeYfyO0rzB+amnef9U1OeZ9L9H6npJRPQX6uC0fxGrf&#xA;3zGT54q9LxV85eavz5/NXXfzB1Xyf+VWhW98NDeSO9u7gBmd4H4SkM8sMMacwVUElm6jwxVmH5Bf&#xA;nXqX5gJq2keYNPTTfMuhsq3kcIdY5FLMhPByzRujpxdSx9vAKvDLKbz8/wCfPnWb8lEd+Us41I3H&#xA;1f0ORl/fEesRHxNyGMXentXFWY/84gy26+Z/O9vra3C+emm56kJ6cSiysJtlG0guGPqV/wAnj3xV&#xA;drH5P/nf5D/MDWvMX5Vtb3una87yS2kj26NGJXMnB47kxofTdjwZWrTr3xVmH/OPn5Nea/KOp635&#xA;t853aT+ZdeqJYY39TgHk9aV5XWiM8klNl2WnXfZVOfzE/wCck/y28ia02iag13qGqQ0+tW2nRJJ6&#xA;PJeSiRpZIUqQeisSO+Ksn/Ln80fJ/wCYWlS6j5cuWk+rMqXlpMnpzwM4JUSJUj4gDRlJU0O+xxV8&#xA;xaF5j8vflh+ffnS4/MPTJbldQlu5NPvDAs/wXFwZkkVHoCssZ48l6H4fHFWSf84iwjUfP3nvzJpd&#xA;sbDy5cMUtLKgCx/WLl5oYhTb9zEvHbxxVlP/ADl151tdM8p2fle0t47rzB5hcxQ1jWSaG1BAkMex&#xA;KtM/GNfEcu4xV6N+TH5fR+Qvy90zQWA+vlfrWqON+V3MAZNx1CUEYPgoxV//2Q==</xmpGImg:image>
               </rdf:li>
            </rdf:Alt>
         </xmp:Thumbnails>
      </rdf:Description>
      <rdf:Description rdf:about=""
            xmlns:xmpTPg="http://ns.adobe.com/xap/1.0/t/pg/"
            xmlns:stDim="http://ns.adobe.com/xap/1.0/sType/Dimensions#"
            xmlns:xmpG="http://ns.adobe.com/xap/1.0/g/">
         <xmpTPg:MaxPageSize rdf:parseType="Resource">
            <stDim:w>23.000000</stDim:w>
            <stDim:h>292.000000</stDim:h>
            <stDim:unit>Points</stDim:unit>
         </xmpTPg:MaxPageSize>
         <xmpTPg:NPages>1</xmpTPg:NPages>
         <xmpTPg:HasVisibleTransparency>False</xmpTPg:HasVisibleTransparency>
         <xmpTPg:HasVisibleOverprint>False</xmpTPg:HasVisibleOverprint>
         <xmpTPg:PlateNames>
            <rdf:Seq>
               <rdf:li>Cyan</rdf:li>
               <rdf:li>Magenta</rdf:li>
               <rdf:li>Yellow</rdf:li>
               <rdf:li>Black</rdf:li>
            </rdf:Seq>
         </xmpTPg:PlateNames>
         <xmpTPg:SwatchGroups>
            <rdf:Seq>
               <rdf:li rdf:parseType="Resource">
                  <xmpG:groupName>默认色板组</xmpG:groupName>
                  <xmpG:groupType>0</xmpG:groupType>
               </rdf:li>
            </rdf:Seq>
         </xmpTPg:SwatchGroups>
      </rdf:Description>
      <rdf:Description rdf:about=""
            xmlns:dc="http://purl.org/dc/elements/1.1/">
         <dc:format>image/svg+xml</dc:format>
      </rdf:Description>
   </rdf:RDF>
</x:xmpmeta>
                                                                                                    
                                                                                                    
                                                                                                    
                                                                                                    
                                                                                                    
                                                                                                    
                                                                                                    
                                                                                                    
                                                                                                    
                                                                                                    
                                                                                                    
                                                                                                    
                                                                                                    
                                                                                                    
                                                                                                    
                                                                                                    
                                                                                                    
                                                                                                    
                                                                                                    
                                                                                                    
                           
<?xpacket end="w"?>
	</metadata>
<path id="_0" d="M15.3,15.435v-9c0.126-3.386-2.516-6.233-5.901-6.359C9.207,0.068,9.015,0.07,8.823,0.081
	C5.428-0.114,2.517,2.48,2.322,5.875C2.311,6.063,2.309,6.25,2.315,6.438v9c-0.116,3.399,2.545,6.249,5.944,6.365
	c0.188,0.006,0.376,0.004,0.564-0.007c3.383,0.191,6.28-2.396,6.472-5.779C15.307,15.823,15.309,15.629,15.3,15.435z M11.4,15.405
	c0.148,1.433-0.893,2.715-2.324,2.864c-1.433,0.149-2.715-0.892-2.864-2.324c-0.019-0.18-0.019-0.36,0-0.54V6.5
	c-0.166-1.431,0.86-2.726,2.292-2.892C8.609,3.596,8.715,3.59,8.821,3.591C10.352,3.589,11.4,4.7,11.4,6.5v8.907V15.405z"/>
<path id="_1" d="M12,51.613V30.261H8.1l-4.345,3.778v4.2l4.345-3.78v17.154H12z"/>
<path id="_2" d="M15.421,81.613V78.1H7.173l5.968-6.928c1.471-1.709,2.279-2.819,2.279-4.888c0-3.839-2.699-6.208-6.478-6.208
	c-3.659,0-6.508,2.339-6.508,6.238h3.9c-0.166-1.335,0.782-2.552,2.117-2.718c0.164-0.021,0.328-0.024,0.492-0.011
	c1.342-0.086,2.5,0.931,2.586,2.272c0.008,0.132,0.006,0.265-0.008,0.397c-0.014,0.973-0.412,1.9-1.109,2.579L2.435,78.1v3.509
	h12.986V81.613z"/>
<path id="_3" d="M15.512,105.435c0.129-2.024-0.953-3.933-2.76-4.858c1.622-0.835,2.59-2.558,2.459-4.377
	c0-3.6-2.729-6.118-6.508-6.118c-3.6,0-6.448,2.279-6.538,6.088h3.9c-0.026-1.4,1.087-2.556,2.487-2.583
	c0.049-0.001,0.099,0,0.148,0.001c1.39-0.055,2.562,1.028,2.616,2.418c0.004,0.104,0.002,0.207-0.008,0.311
	c0.129,1.347-0.858,2.543-2.205,2.672c-0.165,0.016-0.331,0.015-0.495-0.003h-0.57v3.389h0.57c1.632-0.006,2.96,1.311,2.967,2.943
	c0.006,1.595-1.254,2.907-2.847,2.965c-1.487,0.114-2.785-0.999-2.898-2.486c-0.008-0.099-0.01-0.199-0.006-0.298h-3.9
	c0.06,4.469,3.329,6.3,6.808,6.3C12.393,111.793,15.512,109.694,15.512,105.435z"/>
<path id="_4" d="M16.02,138.584V134.9H14.07v-3.988h-3.749v3.988H5.854l7.317-14.634H8.913L1.6,134.9v3.689h8.727v3.029h3.749
	v-3.029h1.943V138.584L16.02,138.584z"/>
<path id="_5" d="M15.48,164.416c0-2.01-0.239-4.02-1.918-5.7c-1.084-0.993-2.521-1.513-3.99-1.44
	c-1.165-0.032-2.302,0.351-3.209,1.08v-4.588H15v-3.508H2.825v12.055h3.569c0.344-1.113,1.417-1.838,2.579-1.738
	c1.888,0,2.609,1.38,2.609,3.839c0.139,1.129-0.162,2.267-0.84,3.181c-0.499,0.475-1.172,0.723-1.859,0.688
	c-1.619,0-2.4-0.959-2.609-2.639h-3.9c-0.002,1.646,0.619,3.231,1.739,4.438c1.303,1.174,3.016,1.789,4.768,1.709
	c1.74,0.08,3.438-0.547,4.708-1.737C15.15,168.494,15.48,166.814,15.48,164.416z"/>
<path id="_6" d="M15.421,195.135c0-3.957-2.729-6.326-5.608-6.326c-0.541-0.014-1.081,0.078-1.588,0.271l4.438-8.815H8.4L3.9,189.5
	c-1.029,1.736-1.645,3.688-1.8,5.7c0,4.229,2.879,6.6,6.658,6.6c3.471,0.21,6.453-2.433,6.663-5.901
	C15.438,195.645,15.438,195.389,15.421,195.135z M11.521,195.165c0,1.979-1.17,3.119-2.759,3.119c-1.589,0-2.762-1.14-2.762-3.119
	s1.17-3.119,2.759-3.119C10.412,192.046,11.521,193.275,11.521,195.165L11.521,195.165z"/>
<path id="_7" d="M14.751,213.77v-3.508H1.165v6.866h3.719v-3.358h5.638l-6.927,17.844h4.229L14.751,213.77z"/>
<path id="_8" d="M15.661,255.4c0.015-1.967-1.013-3.793-2.7-4.801c1.497-0.979,2.398-2.648,2.4-4.438
	c0-3.779-2.969-6.089-6.538-6.089s-6.568,2.31-6.568,6.089c0,1.789,0.903,3.458,2.4,4.438c-1.678,1.014-2.694,2.84-2.669,4.801
	c0,4.139,3.059,6.388,6.838,6.388S15.661,259.544,15.661,255.4z M11.461,246.283c0.064,1.426-1.041,2.634-2.467,2.697
	c-0.057,0.002-0.115,0.004-0.172,0.002c-1.491,0.033-2.726-1.148-2.759-2.639c-0.033-1.492,1.149-2.728,2.64-2.761
	c1.491-0.032,2.726,1.147,2.759,2.64c0.001,0.021,0.001,0.043,0.001,0.064L11.461,246.283z M11.762,255.34
	c-0.018,1.623-1.347,2.926-2.97,2.909s-2.925-1.347-2.909-2.97c0.017-1.611,1.327-2.908,2.938-2.908
	c1.605-0.02,2.921,1.266,2.941,2.871c0.001,0.033,0,0.068-0.001,0.104L11.762,255.34L11.762,255.34z"/>
<path id="_9" d="M15.512,276.678c0-4.228-2.88-6.6-6.659-6.6c-3.47-0.205-6.449,2.443-6.653,5.912c-0.015,0.25-0.015,0.498,0,0.748
	c0,3.959,2.759,6.328,5.638,6.328c0.542,0.013,1.083-0.08,1.59-0.271l-4.438,8.816h4.228l4.528-9.236
	C14.766,280.639,15.369,278.688,15.512,276.678z M11.611,276.708c0,1.979-1.17,3.119-2.759,3.119c-1.649,0-2.759-1.229-2.759-3.119
	c0-1.979,1.17-3.119,2.759-3.119S11.611,274.729,11.611,276.708L11.611,276.708z"/>
</svg>
