<svg xmlns="http://www.w3.org/2000/svg" width="23" height="263" viewBox="0 0 23 263">
  <metadata><?xpacket begin="﻿" id="W5M0MpCehiHzreSzNTczkc9d"?>
<x:xmpmeta xmlns:x="adobe:ns:meta/" x:xmptk="Adobe XMP Core 5.6-c138 79.159824, 2016/09/14-01:09:01        ">
   <rdf:RDF xmlns:rdf="http://www.w3.org/1999/02/22-rdf-syntax-ns#">
      <rdf:Description rdf:about=""/>
   </rdf:RDF>
</x:xmpmeta>
                                                                                                    
                                                                                                    
                                                                                                    
                                                                                                    
                                                                                                    
                                                                                                    
                                                                                                    
                                                                                                    
                                                                                                    
                                                                                                    
                                                                                                    
                                                                                                    
                                                                                                    
                                                                                                    
                                                                                                    
                                                                                                    
                                                                                                    
                                                                                                    
                                                                                                    
                                                                                                    
                           
<?xpacket end="w"?></metadata>
<defs>
    <style>
      .cls-1 {
        fill: #383838;
        fill-rule: evenodd;
      }
    </style>
  </defs>
  <path id="_1" data-name="1" class="cls-1" d="M11.354,21.731V0.382H7.5L3.2,4.16v4.2L7.5,4.58V21.731h3.853Z"/>
  <path id="_2" data-name="2" class="cls-1" d="M15.733,52.731V49.223H7.583l5.9-6.926c1.452-1.709,2.252-2.818,2.252-4.887,0-3.838-2.667-6.207-6.4-6.207C5.716,31.2,2.9,33.541,2.9,37.439H6.753A2.421,2.421,0,0,1,9.332,34.71a2.421,2.421,0,0,1,2.549,2.669,3.7,3.7,0,0,1-1.1,2.579L2.9,49.223v3.508H15.733Z"/>
  <path id="_3" data-name="3" class="cls-1" d="M16.822,76.554A5.1,5.1,0,0,0,14.1,71.7a4.565,4.565,0,0,0,2.43-4.378c0-3.6-2.7-6.117-6.431-6.117-3.556,0-6.372,2.279-6.46,6.087H7.487a2.519,2.519,0,0,1,2.608-2.579,2.5,2.5,0,0,1,2.578,2.729,2.436,2.436,0,0,1-2.667,2.669H9.443V73.5h0.563a2.954,2.954,0,0,1,.119,5.907A2.682,2.682,0,0,1,7.25,76.614H3.4c0.059,4.468,3.29,6.3,6.727,6.3C13.74,82.911,16.822,80.812,16.822,76.554Z"/>
  <path id="_4" data-name="4" class="cls-1" d="M17.326,109.7v-3.688H15.4v-3.987h-3.7v3.987H7.279L14.51,91.382H10.3L3.071,106.014V109.7h8.624v3.029h3.7V109.7h1.926Z"/>
  <path id="_5" data-name="5" class="cls-1" d="M15.792,135.535c0-2.009-.237-4.018-1.9-5.7a5.4,5.4,0,0,0-3.941-1.44,4.8,4.8,0,0,0-3.171,1.08V124.89h8.535v-3.508H3.286v12.054H6.813A2.451,2.451,0,0,1,9.361,131.7c1.867,0,2.578,1.379,2.578,3.838a4.463,4.463,0,0,1-.83,3.178,2.464,2.464,0,0,1-1.837.69c-1.6,0-2.371-.96-2.578-2.639H2.841A6.553,6.553,0,0,0,4.56,141.2a6.546,6.546,0,0,0,4.712,1.709,6.325,6.325,0,0,0,4.653-1.739C15.466,139.613,15.792,137.933,15.792,135.535Z"/>
  <path id="_6" data-name="6" class="cls-1" d="M16.733,166.254c0-3.958-2.7-6.326-5.542-6.326a4.128,4.128,0,0,0-1.571.27l4.386-8.816H9.8l-4.445,9.235a13.269,13.269,0,0,0-1.778,5.7,6.193,6.193,0,0,0,6.579,6.6A6.256,6.256,0,0,0,16.733,166.254Zm-3.853.03c0,1.979-1.156,3.119-2.726,3.119s-2.726-1.14-2.726-3.119,1.156-3.118,2.726-3.118C11.784,163.166,12.88,164.4,12.88,166.284Z"/>
  <path id="_7" data-name="7" class="cls-1" d="M17.059,184.89v-3.508H3.634v6.867H7.309V184.89H12.88L6.034,202.731h4.179Z"/>
  <path id="_8" data-name="8" class="cls-1" d="M16.97,226.524a5.552,5.552,0,0,0-2.667-4.8,5.319,5.319,0,0,0,2.371-4.438c0-3.778-2.934-6.087-6.461-6.087s-6.49,2.309-6.49,6.087a5.319,5.319,0,0,0,2.371,4.438,5.535,5.535,0,0,0-2.638,4.8c0,4.138,3.023,6.387,6.757,6.387S16.97,230.662,16.97,226.524Zm-4.149-9.115a2.624,2.624,0,1,1-5.245,0A2.624,2.624,0,1,1,12.821,217.409Zm0.3,9.055a2.9,2.9,0,1,1-2.9-2.968A2.889,2.889,0,0,1,13.117,226.464Z"/>
  <path id="_9" data-name="9" class="cls-1" d="M16.822,247.8a6.193,6.193,0,0,0-6.579-6.6,6.256,6.256,0,0,0-6.579,6.657c0,3.958,2.726,6.326,5.571,6.326a4.146,4.146,0,0,0,1.571-.269L6.42,262.731H10.6l4.475-9.235A13.212,13.212,0,0,0,16.822,247.8Zm-3.853.03c0,1.979-1.156,3.118-2.726,3.118-1.63,0-2.726-1.229-2.726-3.118,0-1.979,1.156-3.119,2.726-3.119S12.969,245.85,12.969,247.829Z"/>
</svg>
