<?xml version="1.0" encoding="utf-8"?>
<!-- Generator: Adobe Illustrator 16.0.0, SVG Export Plug-In . SVG Version: 6.00 Build 0)  -->
<!DOCTYPE svg PUBLIC "-//W3C//DTD SVG 1.1//EN" "http://www.w3.org/Graphics/SVG/1.1/DTD/svg11.dtd">
<svg version="1.1" id="图层_1" xmlns="http://www.w3.org/2000/svg" xmlns:xlink="http://www.w3.org/1999/xlink" x="0px" y="0px"
	 width="23px" height="292.6px" viewBox="0 -29.886 23 292.6" enable-background="new 0 -29.886 23 292.6" xml:space="preserve">
<metadata><?xpacket begin="﻿" id="W5M0MpCehiHzreSzNTczkc9d"?>
<x:xmpmeta xmlns:x="adobe:ns:meta/" x:xmptk="Adobe XMP Core 5.3-c011 66.145661, 2012/02/06-14:56:27        ">
   <rdf:RDF xmlns:rdf="http://www.w3.org/1999/02/22-rdf-syntax-ns#">
      <rdf:Description rdf:about=""
            xmlns:xmp="http://ns.adobe.com/xap/1.0/"
            xmlns:xmpGImg="http://ns.adobe.com/xap/1.0/g/img/">
         <xmp:CreatorTool>Adobe Illustrator CS6 (Windows)</xmp:CreatorTool>
         <xmp:CreateDate>2018-09-04T16:26:32+08:00</xmp:CreateDate>
         <xmp:MetadataDate>2018-09-04T16:26:32+08:00</xmp:MetadataDate>
         <xmp:ModifyDate>2018-09-04T16:26:32+08:00</xmp:ModifyDate>
         <xmp:Thumbnails>
            <rdf:Alt>
               <rdf:li rdf:parseType="Resource">
                  <xmpGImg:width>16</xmpGImg:width>
                  <xmpGImg:height>256</xmpGImg:height>
                  <xmpGImg:format>JPEG</xmpGImg:format>
                  <xmpGImg:image>/9j/4AAQSkZJRgABAgEASABIAAD/7QAsUGhvdG9zaG9wIDMuMAA4QklNA+0AAAAAABAASAAAAAEA&#xA;AQBIAAAAAQAB/+4ADkFkb2JlAGTAAAAAAf/bAIQABgQEBAUEBgUFBgkGBQYJCwgGBggLDAoKCwoK&#xA;DBAMDAwMDAwQDA4PEA8ODBMTFBQTExwbGxscHx8fHx8fHx8fHwEHBwcNDA0YEBAYGhURFRofHx8f&#xA;Hx8fHx8fHx8fHx8fHx8fHx8fHx8fHx8fHx8fHx8fHx8fHx8fHx8fHx8fHx8f/8AAEQgBAAAQAwER&#xA;AAIRAQMRAf/EAaIAAAAHAQEBAQEAAAAAAAAAAAQFAwIGAQAHCAkKCwEAAgIDAQEBAQEAAAAAAAAA&#xA;AQACAwQFBgcICQoLEAACAQMDAgQCBgcDBAIGAnMBAgMRBAAFIRIxQVEGE2EicYEUMpGhBxWxQiPB&#xA;UtHhMxZi8CRygvElQzRTkqKyY3PCNUQnk6OzNhdUZHTD0uIIJoMJChgZhJRFRqS0VtNVKBry4/PE&#xA;1OT0ZXWFlaW1xdXl9WZ2hpamtsbW5vY3R1dnd4eXp7fH1+f3OEhYaHiImKi4yNjo+Ck5SVlpeYmZ&#xA;qbnJ2en5KjpKWmp6ipqqusra6voRAAICAQIDBQUEBQYECAMDbQEAAhEDBCESMUEFURNhIgZxgZEy&#xA;obHwFMHR4SNCFVJicvEzJDRDghaSUyWiY7LCB3PSNeJEgxdUkwgJChgZJjZFGidkdFU38qOzwygp&#xA;0+PzhJSktMTU5PRldYWVpbXF1eX1RlZmdoaWprbG1ub2R1dnd4eXp7fH1+f3OEhYaHiImKi4yNjo&#xA;+DlJWWl5iZmpucnZ6fkqOkpaanqKmqq6ytrq+v/aAAwDAQACEQMRAD8Ajnkn8vdT/P3zN5v1rzLr&#xA;tzbfoyb0dNgSkqRGdpCiKr7LFGsQ+FaFuta9VXpn/OH3mvzFqvlnXdE1i6e8XQbqKKzllZpHWOVX&#xA;rFybcorRfD4Vp0pirG/+cRte0fSbrz9a6peQ2E8VxDcOly6xERRGdZG+Mj7Bpy8KjFUb/wA4WOJr&#xA;fztcJUwy3ts0bEEAgiY/qIxVm3nf/nFj8sfNuvT63Mb7S7y7cyXi6fLEkcsjGrSFJYpgrMdzxpU7&#xA;0rir0DyJ5B8s+RtBTQ/LtsbezVjLKzsXlllYANJI5+0xAHsOgAGKvmzzZ/zlF5/vvO2nR+Wbf9E+&#xA;U57/APR8M9xAkkl20UsazsXcMq8RKvwp9mu532VfWmKvmL/nKnTdP0zXPyqsNPt47Wzt727WG3iU&#xA;Iij1rImgHiTU++Kvp3FXj359/lP5o89635LvdEe2WHQLmea++syNGxWWS2ZfTCo/I0gbrTtir2HF&#xA;XlXm/wD5ya/Kjyvrs2iXl7Pd3ts5iu/qUPrRwyDZldyVBK9GC1oduuKvQPK/mrQPNOiW+t6DeJfa&#xA;bcg+lOlRupoysrAMrKeqsK4q8S80flr+Tf5O+Q/MWqahAdcvdXjeG0Gs+hc3Mty6MEjgZIomQFm5&#xA;yMu4pWuwxVF/84eeW9c0n8tLm81JHhttYvTd6dA+xMPpJH61OoEhTbxAB6HFXz/rX5waB57/ADQi&#xA;8xfmHDey+VNPLfo3y/YLHL8AYFI5PUlgUc/tSuN2px2FOKr6+/Kf82fK/wCY2mXl15etLuztdMkS&#xA;2eK8jhiNWTkvprDJMOIHyxVPLzQ/I1kqte6fpdsrnijTQ28YZvAFgKnFUzsNN0uxjYafawWsclGY&#xA;W8aRqxpsTwArir5t8wf849an5l83+YvNv5teY49N0Vmb9EyW11GqwxmQiGN2uY/TjREoOK7sxrWv&#xA;VVMP+cNdb1i50jzRos13JfaHo1zAujTuG40m9b1Vj5fZWkaPw/Z5e+Ksiv8A8yfyj/NrT/MfkbW5&#xA;7rQl05h9d/SD29k7NbytyeB/UmB9J4hzDAdRt1oqxL/nDXVrsP5w8uW90b3y9plzFNptwUK1MzSo&#xA;XHh6qQq3E9PvxV6J54/5xq/K3zhrUutX1pcWWo3LF7uWxl9ITOerujLInI9yoFepqcVZh5E/L3yn&#xA;5F0b9E+W7IWtszepPIzGSWaSlOckjVLH8B2AxVgH/OSv5ual5C8sWdp5fnEXmjWZglk4RJmihiIM&#xA;snpyK6EsSsahl/aJG4xV6D+X9v5rg8m6Uvm28N95jeES6lMY4ouMsh5+kEhWNP3QYJUDelcVfKtp&#xA;528q+fP+cgr7zh5j1a1s/LflxS2hQXsqxrObUkWqorEE85S07fd3xV7p/wA4/wD50v8AmVol9Jqg&#xA;srPXbS5dRptqzcvqixxFZykjO1DJKy16bYql9/8A84m/k89jcrZaVLHetE4tpHvLngspU8C3xtsG&#xA;pXbFV/8Azjx+RE/5bWl/ea29tceZLyR4VurKaaSH6iViZYysqQ/GJUY149Kb4qxWP/nMN7ie4jsf&#xA;It/erbSNFJJBP6gBUkb8YGpWmKvWvyo/MW48++XbjWJ9EuNBeC8e0FndEs7BIo5PUBKRbH1ePTti&#xA;r5l/LfTv+ckfLNl5mHlTQ302zS4a/u5NTtTDLPxDUjt1uQvqfCp+wv07jFX0H+QX5sT/AJk+TH1K&#xA;+gjttYsJzaahHDURs3EOkqKSxUOrdCeoOKvHrz8xP+ckfJk/mHyzreh3vmp71Xg0bWIrdikYbkiz&#xA;Rm1hZJOSsG9NqMp6+GKvRv8AnFr8tte8leRbptfhNpqesXX1o2TfbhhRAkYkA6O3xMR2BFd6jFXq&#xA;fmLzNoHlvS31XXb6LTtPjZUa5mPFeTmir4kk4qraNrOl63pdvqulXC3en3a87a5SvF1qRyWoBpUY&#xA;q+Vf+cp/Pela9+Ymi+QrvUhYeW9Jmim1+9VXl4TTD4vgjWRmaGA/DQfacg9MVfS/kTXvJ2teWbOb&#xA;yhdw3WhW0a2tr6FQIlhUKsTI4V0KrT4WAOKvknyPf/lton5uefh+b1pG91JPdG2N5bvcx+o87vLx&#xA;RVejSIytE9On2SKiqrOf+cMIrg3Xna7sYpofLM1xAunrLuA6tM3HlvV0idOdD3Htir3fzP8Aln5A&#xA;803SXnmDQbPUbuNeC3MsY9XgOil1oxA7AnFU60jRtJ0bT4dN0mzhsLCAUhtbdFjjUd6KoA37nvir&#xA;5L8s/lh+avmfU/OF/r/mzX/Jel6PO89vNeRXpint2ed3aIyT2w4xJEpPGuzDp3VZJ/zh1debdWvf&#xA;M2ralql7qWkQiGztHvZpZAZizSMVV3kCsE48qH9oYqzL/nLPzx/h38r5dKt5eGoeY5BYxgGjC2X4&#xA;7lv9UrSNv9fFWVfkP5H/AMGflfo2lyx+nqFxH9e1IEUb6xcgOyt7xrxj/wBjiqA/Mf8AI608+ed9&#xA;D8w6rq8i6donp8NEEKtFLxl9WTlIXFPVoqt8PQYq9PxV85eZ/wDnIL80Na886v5Y/Kzy7DqUegtI&#xA;l9dXKl3doHMcjKPVhRELghRUs3UeGKs6/IX86ZPzK0rUI9RsU07zBo8iR6hbRlvTZZeXGRFcl1+K&#xA;NlZSTTx3xV8/6Nd/mIv5zeepvyTjluraSaZtR+tLB6QYyMxKmdgn9/z9D9or1FOWKs7/AOcM20xD&#xA;5wiu2mHnBrmM6rFOoUCJDIBx78vWaT1K/wCTiqFv/wApvz6/L3zzr2rfld6GoaTr8jSvFJJbK0YZ&#xA;2kRZEunjBaJpGCMrGo69aYqzr/nHX8nPMfkn9NeYPNk8cvmTzA6tNDEwk9JQzSPzdaI0kkj1bjUC&#xA;godziqZ/mF/zkt+WnkfWn0W+e71HU4KC7g06KOX0SRXjI8skKcvEKSR3xVl/kD8xvKnnzRTq3ly7&#xA;+sQI/pXEMimOaGSleMiHpt0IqD2OKvlbyp5k8rflj+cfnlPzJ0mS9mvZbhrO6a3S4LJLO8vMJJQF&#xA;blGB5fQe+Ksy/wCcM7V59Q88a3Z2zWeh3dzBFZQVqqlWml9IdiYo5UB+eKpt/wA5geaLeLQtJ8oW&#xA;FrFd+YtfmAjPpq88durheMRI5I08pCCnUBhir1v8rPIlp5F8i6X5cg4tNbR876Zf923UnxTPXrTk&#xA;aLX9kAYq/wD/2Q==</xmpGImg:image>
               </rdf:li>
            </rdf:Alt>
         </xmp:Thumbnails>
      </rdf:Description>
      <rdf:Description rdf:about=""
            xmlns:xmpTPg="http://ns.adobe.com/xap/1.0/t/pg/"
            xmlns:stDim="http://ns.adobe.com/xap/1.0/sType/Dimensions#"
            xmlns:xmpG="http://ns.adobe.com/xap/1.0/g/">
         <xmpTPg:MaxPageSize rdf:parseType="Resource">
            <stDim:w>23.000000</stDim:w>
            <stDim:h>292.599609</stDim:h>
            <stDim:unit>Pixels</stDim:unit>
         </xmpTPg:MaxPageSize>
         <xmpTPg:NPages>1</xmpTPg:NPages>
         <xmpTPg:HasVisibleTransparency>False</xmpTPg:HasVisibleTransparency>
         <xmpTPg:HasVisibleOverprint>False</xmpTPg:HasVisibleOverprint>
         <xmpTPg:PlateNames>
            <rdf:Seq>
               <rdf:li>Cyan</rdf:li>
               <rdf:li>Magenta</rdf:li>
               <rdf:li>Yellow</rdf:li>
               <rdf:li>Black</rdf:li>
            </rdf:Seq>
         </xmpTPg:PlateNames>
         <xmpTPg:SwatchGroups>
            <rdf:Seq>
               <rdf:li rdf:parseType="Resource">
                  <xmpG:groupName>默认色板组</xmpG:groupName>
                  <xmpG:groupType>0</xmpG:groupType>
               </rdf:li>
            </rdf:Seq>
         </xmpTPg:SwatchGroups>
      </rdf:Description>
      <rdf:Description rdf:about=""
            xmlns:dc="http://purl.org/dc/elements/1.1/">
         <dc:format>image/svg+xml</dc:format>
      </rdf:Description>
      <rdf:Description rdf:about=""
            xmlns:xmpMM="http://ns.adobe.com/xap/1.0/mm/"
            xmlns:stRef="http://ns.adobe.com/xap/1.0/sType/ResourceRef#"
            xmlns:stEvt="http://ns.adobe.com/xap/1.0/sType/ResourceEvent#">
         <xmpMM:DerivedFrom rdf:parseType="Resource">
            <stRef:instanceID>xmp.iid:61EF102F1CB0E8118AF3EEB23B7C6092</stRef:instanceID>
            <stRef:documentID>xmp.did:61EF102F1CB0E8118AF3EEB23B7C6092</stRef:documentID>
            <stRef:originalDocumentID>xmp.did:61EF102F1CB0E8118AF3EEB23B7C6092</stRef:originalDocumentID>
         </xmpMM:DerivedFrom>
         <xmpMM:DocumentID>xmp.did:62EF102F1CB0E8118AF3EEB23B7C6092</xmpMM:DocumentID>
         <xmpMM:InstanceID>xmp.iid:62EF102F1CB0E8118AF3EEB23B7C6092</xmpMM:InstanceID>
         <xmpMM:OriginalDocumentID>xmp.did:61EF102F1CB0E8118AF3EEB23B7C6092</xmpMM:OriginalDocumentID>
         <xmpMM:History>
            <rdf:Seq>
               <rdf:li rdf:parseType="Resource">
                  <stEvt:action>saved</stEvt:action>
                  <stEvt:instanceID>xmp.iid:61EF102F1CB0E8118AF3EEB23B7C6092</stEvt:instanceID>
                  <stEvt:when>2018-09-04T16:26:13+08:00</stEvt:when>
                  <stEvt:softwareAgent>Adobe Illustrator CS6 (Windows)</stEvt:softwareAgent>
                  <stEvt:changed>/</stEvt:changed>
               </rdf:li>
               <rdf:li rdf:parseType="Resource">
                  <stEvt:action>saved</stEvt:action>
                  <stEvt:instanceID>xmp.iid:62EF102F1CB0E8118AF3EEB23B7C6092</stEvt:instanceID>
                  <stEvt:when>2018-09-04T16:26:32+08:00</stEvt:when>
                  <stEvt:softwareAgent>Adobe Illustrator CS6 (Windows)</stEvt:softwareAgent>
                  <stEvt:changed>/</stEvt:changed>
               </rdf:li>
            </rdf:Seq>
         </xmpMM:History>
      </rdf:Description>
   </rdf:RDF>
</x:xmpmeta>
                                                                                                    
                                                                                                    
                                                                                                    
                                                                                                    
                                                                                                    
                                                                                                    
                                                                                                    
                                                                                                    
                                                                                                    
                                                                                                    
                                                                                                    
                                                                                                    
                                                                                                    
                                                                                                    
                                                                                                    
                                                                                                    
                                                                                                    
                                                                                                    
                                                                                                    
                                                                                                    
                           
<?xpacket end="w"?>
	</metadata>
<path id="_1" d="M9.704,21.716V0.367H5.85l-4.3,3.778v4.2l4.3-3.78v17.151H9.704L9.704,21.716z"/>
<path id="_2" d="M14.082,52.716v-3.508H5.933l5.899-6.926c1.453-1.709,2.252-2.818,2.252-4.887c0-3.838-2.666-6.207-6.399-6.207
	c-3.619-0.003-6.435,2.338-6.435,6.236h3.853c-0.174-1.326,0.76-2.542,2.086-2.715c0.164-0.021,0.329-0.026,0.493-0.014
	c1.335-0.078,2.48,0.941,2.558,2.276c0.008,0.131,0.004,0.263-0.01,0.393c-0.014,0.971-0.408,1.897-1.1,2.579L1.25,49.208v3.508
	H14.082z"/>
<path id="_3" d="M15.172,76.539c0.133-2.014-0.934-3.918-2.723-4.854c1.609-0.846,2.564-2.565,2.43-4.379
	c0-3.6-2.699-6.117-6.43-6.117c-3.556,0-6.372,2.279-6.46,6.088h3.848c-0.034-1.391,1.066-2.547,2.457-2.58
	c0.05-0.002,0.101-0.001,0.151,0c1.38-0.049,2.537,1.03,2.586,2.41c0.004,0.106,0.002,0.213-0.008,0.319
	c0.135,1.339-0.84,2.534-2.179,2.669c-0.163,0.017-0.326,0.017-0.489,0H7.793v3.389h0.563c1.631-0.032,2.98,1.264,3.013,2.895
	s-1.263,2.98-2.894,3.013l0,0C6.998,79.5,5.713,78.39,5.604,76.912c-0.007-0.104-0.009-0.209-0.004-0.313H1.75
	c0.059,4.468,3.29,6.3,6.727,6.3C12.09,82.896,15.172,80.797,15.172,76.539z"/>
<path id="_4" d="M15.676,109.686v-3.688H13.75v-3.987h-3.699v3.987H5.629l7.23-14.63H8.65l-7.229,14.632v3.687h8.624v3.028h3.699
	v-3.028h1.926H15.676z"/>
<path id="_5" d="M14.143,135.519c0-2.01-0.238-4.017-1.9-5.698c-1.066-0.992-2.486-1.512-3.941-1.44
	c-1.152-0.032-2.278,0.351-3.171,1.08v-4.585h8.534v-3.508H1.636v12.052h3.527c0.333-1.107,1.396-1.829,2.548-1.733
	c1.867,0,2.578,1.378,2.578,3.837c0.137,1.125-0.159,2.262-0.83,3.178c-0.49,0.475-1.155,0.725-1.837,0.689
	c-1.6,0-2.371-0.961-2.578-2.639H1.191c-0.002,1.641,0.611,3.223,1.719,4.434c1.282,1.172,2.977,1.785,4.712,1.709
	c1.724,0.078,3.403-0.551,4.653-1.74C13.816,139.597,14.143,137.917,14.143,135.519z"/>
<path id="_6" d="M15.082,166.237c0-3.957-2.699-6.326-5.541-6.326c-0.536-0.012-1.07,0.08-1.571,0.27l4.385-8.814H8.15l-4.445,9.234
	c-1.018,1.74-1.626,3.689-1.778,5.699c-0.232,3.414,2.346,6.367,5.759,6.6c0.273,0.018,0.547,0.02,0.82,0.002
	c3.449,0.184,6.396-2.463,6.582-5.912C15.102,166.739,15.1,166.487,15.082,166.237z M11.23,166.269c0,1.979-1.156,3.117-2.727,3.117
	c-1.57,0-2.726-1.139-2.726-3.117c0-1.98,1.156-3.119,2.726-3.119C10.135,163.149,11.23,164.384,11.23,166.269z"/>
<path id="_7" d="M15.408,184.874v-3.508H1.984v6.867h3.675v-3.359h5.571l-6.846,17.84h4.178L15.408,184.874z"/>
<path id="_8" d="M15.32,226.507c0.02-1.957-0.994-3.781-2.668-4.799c1.484-0.988,2.375-2.654,2.371-4.438
	c0-3.779-2.934-6.088-6.461-6.088c-3.526,0-6.489,2.309-6.489,6.088c-0.004,1.783,0.887,3.449,2.371,4.438
	c-1.665,1.021-2.667,2.846-2.638,4.799c0,4.139,3.023,6.389,6.756,6.389C12.297,232.896,15.32,230.646,15.32,226.507z
	 M11.17,217.394c0.051,1.447-1.084,2.662-2.533,2.711c-1.448,0.049-2.662-1.086-2.71-2.535c-0.002-0.059-0.002-0.117,0-0.176
	c-0.049-1.449,1.085-2.664,2.534-2.713s2.661,1.086,2.71,2.535C11.172,217.274,11.172,217.333,11.17,217.394L11.17,217.394z
	 M11.471,226.448c-0.037,1.6-1.365,2.867-2.967,2.83c-1.601-0.037-2.869-1.365-2.831-2.967c0.037-1.574,1.323-2.832,2.898-2.832
	c1.595-0.004,2.892,1.285,2.897,2.881c0,0.029-0.002,0.059-0.002,0.088H11.471z"/>
<path id="_9" d="M15.172,247.784c0.232-3.412-2.346-6.367-5.759-6.6c-0.272-0.018-0.547-0.02-0.819,0
	c-3.451-0.188-6.398,2.459-6.584,5.91c-0.014,0.248-0.012,0.498,0.004,0.746c0,3.957,2.726,6.326,5.571,6.326
	c0.536,0.012,1.069-0.078,1.571-0.27l-4.386,8.816h4.18l4.476-9.234C14.434,251.739,15.031,249.79,15.172,247.784z M11.318,247.813
	c0,1.979-1.155,3.117-2.725,3.117c-1.631,0-2.727-1.229-2.727-3.117c0-1.979,1.156-3.119,2.727-3.119
	C10.163,244.694,11.318,245.833,11.318,247.813L11.318,247.813z"/>
<g>
	<path d="M8.073-8.167c-3.48,0-6.51-2.279-6.51-6.359v-9c0-4.079,3.03-6.359,6.51-6.359c3.48,0,6.48,2.28,6.48,6.359v9
		C14.553-10.446,11.553-8.167,8.073-8.167z M10.652-23.466c0-1.8-1.05-2.91-2.58-2.91c-1.53,0-2.61,1.11-2.61,2.91v8.909
		c0,1.8,1.08,2.88,2.61,2.88c1.529,0,2.58-1.08,2.58-2.88V-23.466z"/>
</g>
</svg>
